<svg width="307" height="60" viewBox="0 0 307 60" fill="none" xmlns="http://www.w3.org/2000/svg">
<rect width="307" height="60" rx="15" fill="#080808"/>
<path d="M137.501 44.405V41.5292C137.501 41.3367 137.478 41.1555 137.421 40.9857C137.365 40.8158 137.285 40.6573 137.183 40.5328C137.081 40.3969 136.946 40.295 136.798 40.2271C136.651 40.1478 136.47 40.1139 136.289 40.1139C136.096 40.1139 135.926 40.1478 135.768 40.2271C135.609 40.3063 135.484 40.4082 135.371 40.5328C135.258 40.6687 135.179 40.8158 135.122 40.9857C135.065 41.1555 135.031 41.3367 135.031 41.5292V44.405H133.921V39.1515H134.952L135.031 39.8648C135.179 39.5704 135.394 39.3666 135.666 39.242C135.938 39.1288 136.221 39.0609 136.493 39.0609C136.662 39.0609 136.832 39.0835 136.991 39.1175C137.149 39.1515 137.308 39.2081 137.455 39.2987C137.603 39.3892 137.727 39.4911 137.852 39.627C137.965 39.7629 138.067 39.9214 138.146 40.1139C138.361 39.7289 138.622 39.4572 138.928 39.2987C139.245 39.1515 139.573 39.0722 139.936 39.0722C140.661 39.0722 141.216 39.2873 141.589 39.7176C141.963 40.1478 142.156 40.7366 142.156 41.4952V44.3937H141.046V41.4952C141.046 41.3027 141.023 41.1216 140.966 40.9517C140.921 40.7819 140.842 40.6347 140.751 40.5101C140.661 40.3856 140.536 40.2837 140.389 40.2158C140.242 40.1478 140.072 40.1139 139.879 40.1139C139.687 40.1139 139.517 40.1478 139.358 40.2271C139.2 40.3063 139.064 40.3969 138.95 40.5328C138.837 40.6573 138.758 40.8158 138.69 40.9857C138.633 41.1555 138.599 41.3367 138.599 41.5292V44.405H137.501Z" fill="#989898"/>
<path d="M147.774 39.1623H148.838V44.4045H147.796L147.74 43.5553C147.649 43.7252 147.547 43.8724 147.4 43.9969C147.264 44.1215 147.106 44.2234 146.947 44.3026C146.777 44.3819 146.607 44.4498 146.437 44.4838C146.267 44.5177 146.097 44.5404 145.928 44.5404C145.542 44.5404 145.191 44.4838 144.863 44.3592C144.534 44.2347 144.251 44.0648 144.013 43.8271C143.776 43.5893 143.583 43.3062 143.447 42.9553C143.311 42.6156 143.243 42.2193 143.243 41.7664C143.243 41.3248 143.311 40.9399 143.458 40.6002C143.606 40.2605 143.798 39.9775 144.036 39.7397C144.285 39.5133 144.568 39.3321 144.897 39.2189C145.225 39.0943 145.576 39.0377 145.95 39.0377C146.324 39.0377 146.675 39.117 147.004 39.2868C147.332 39.4566 147.57 39.6831 147.74 39.9775L147.774 39.1623ZM146.041 40.0454C145.803 40.0454 145.588 40.0907 145.384 40.17C145.18 40.2492 144.999 40.3624 144.84 40.5209C144.682 40.6681 144.557 40.8493 144.478 41.0644C144.387 41.2795 144.342 41.5173 144.342 41.789C144.342 42.0608 144.387 42.2986 144.478 42.5137C144.568 42.7288 144.693 42.91 144.84 43.0572C144.999 43.2043 145.18 43.3176 145.384 43.4081C145.588 43.4874 145.814 43.5327 146.041 43.5327C146.415 43.5327 146.732 43.4421 146.981 43.2723C147.23 43.1024 147.423 42.8873 147.547 42.6269C147.672 42.3665 147.74 42.0834 147.74 41.789C147.74 41.4833 147.672 41.2116 147.547 40.9512C147.423 40.6908 147.23 40.4757 146.981 40.3058C146.732 40.136 146.426 40.0454 146.041 40.0454Z" fill="#989898"/>
<path d="M153.663 40.453C153.459 40.2605 153.244 40.136 153.018 40.0681C152.791 40.0001 152.542 39.9662 152.281 39.9662C151.942 39.9548 151.67 40.0114 151.466 40.1247C151.262 40.2379 151.16 40.3964 151.16 40.6002C151.171 40.8153 151.273 40.9738 151.477 41.0757C151.681 41.1663 151.953 41.2343 152.304 41.2682C152.542 41.2909 152.802 41.3248 153.063 41.3701C153.323 41.4154 153.573 41.4947 153.788 41.6192C154.003 41.7324 154.184 41.9023 154.331 42.1061C154.467 42.3099 154.535 42.5816 154.535 42.9213C154.535 43.1704 154.479 43.3968 154.377 43.6006C154.275 43.8044 154.116 43.9743 153.924 44.1215C153.731 44.2686 153.493 44.3819 153.221 44.4611C152.95 44.5404 152.644 44.5857 152.304 44.5857C151.874 44.5857 151.466 44.5177 151.047 44.3932C150.639 44.2686 150.254 44.0082 149.914 43.612L150.492 42.8307C150.741 43.1024 151.035 43.2949 151.364 43.4195C151.692 43.544 152.021 43.6006 152.327 43.612C152.451 43.612 152.587 43.6006 152.712 43.578C152.848 43.5553 152.961 43.5101 153.063 43.4648C153.165 43.4082 153.255 43.3402 153.323 43.2496C153.391 43.1591 153.425 43.0572 153.425 42.9326C153.437 42.6948 153.335 42.525 153.119 42.4231C152.904 42.3212 152.61 42.2419 152.213 42.208C151.964 42.1853 151.715 42.1514 151.466 42.0834C151.217 42.0268 150.99 41.9362 150.775 41.823C150.571 41.7098 150.401 41.5513 150.265 41.3588C150.129 41.1663 150.073 40.9286 150.073 40.6342C150.073 40.3398 150.141 40.102 150.277 39.8982C150.412 39.6944 150.582 39.5359 150.798 39.4C151.013 39.2642 151.239 39.1849 151.5 39.1283C151.76 39.0717 152.009 39.0377 152.259 39.0377C152.666 39.0377 153.029 39.0943 153.346 39.1962C153.663 39.2981 153.98 39.4793 154.275 39.7397L153.663 40.453Z" fill="#989898"/>
<path d="M157.322 37.6563V39.1735H158.862V40.1246H157.322V42.6269C157.322 42.8986 157.379 43.1137 157.503 43.2609C157.628 43.4081 157.82 43.4874 158.07 43.4874C158.171 43.4874 158.285 43.476 158.409 43.4421C158.523 43.4081 158.636 43.3628 158.749 43.3062L159.066 44.246C158.885 44.3252 158.704 44.3818 158.545 44.4158C158.375 44.4498 158.205 44.4724 158.024 44.4724C157.447 44.4837 157.005 44.3365 156.699 44.0308C156.393 43.7138 156.235 43.2496 156.235 42.6269V40.1246H155.227V39.1735H156.235V37.7696L157.322 37.6563Z" fill="#989898"/>
<path d="M160.777 42.1967C160.822 42.6043 161.003 42.9213 161.309 43.1591C161.615 43.3968 162.011 43.51 162.487 43.51C162.759 43.51 163.031 43.4648 163.325 43.3629C163.62 43.2723 163.846 43.1251 164.005 42.9439L164.718 43.6346C164.582 43.7818 164.424 43.9177 164.254 44.0309C164.073 44.1441 163.891 44.2347 163.699 44.3139C163.506 44.3932 163.302 44.4385 163.087 44.4838C162.872 44.5177 162.668 44.5404 162.476 44.5404C162.045 44.5404 161.649 44.4724 161.309 44.3479C160.958 44.212 160.663 44.0309 160.425 43.7931C160.176 43.5553 159.995 43.261 159.859 42.9213C159.723 42.5816 159.655 42.1967 159.655 41.7777C159.655 41.3814 159.723 41.0191 159.859 40.6795C159.995 40.3398 160.176 40.0567 160.425 39.8076C160.663 39.5699 160.958 39.3774 161.298 39.2415C161.637 39.1057 162.011 39.0377 162.419 39.0377C162.849 39.0377 163.223 39.1057 163.574 39.2302C163.914 39.3661 164.209 39.5585 164.446 39.819C164.684 40.0794 164.854 40.4077 164.967 40.804C165.081 41.2003 165.103 41.6645 165.058 42.1967H160.777ZM163.971 41.2682C163.937 40.8493 163.778 40.5323 163.506 40.3171C163.234 40.102 162.872 40.0001 162.419 40.0001C162.011 40.0001 161.66 40.102 161.366 40.3171C161.071 40.5323 160.879 40.8493 160.788 41.2682H163.971Z" fill="#989898"/>
<path d="M167.176 39.1623L167.255 39.8529C167.448 39.5246 167.685 39.2981 167.957 39.1962C168.229 39.0943 168.512 39.0377 168.795 39.0377C169.056 39.0377 169.294 39.083 169.52 39.1623C169.747 39.2415 169.939 39.3547 170.087 39.4906L169.588 40.4417C169.452 40.3398 169.316 40.2605 169.181 40.2039C169.045 40.1473 168.875 40.1247 168.66 40.1247C168.467 40.1247 168.286 40.1586 168.116 40.2152C167.946 40.2719 167.799 40.3624 167.674 40.4757C167.55 40.5889 167.448 40.7361 167.368 40.9172C167.289 41.0984 167.255 41.3135 167.255 41.5513V44.3932H166.145V39.1509H167.176V39.1623Z" fill="#989898"/>
<path d="M175.116 43.7252C174.821 44.0196 174.504 44.2234 174.187 44.3479C173.87 44.4724 173.508 44.5404 173.134 44.5404C172.76 44.5404 172.398 44.4838 172.069 44.3705C171.729 44.2573 171.435 44.0762 171.186 43.8497C170.936 43.6233 170.733 43.3289 170.585 42.9892C170.438 42.6495 170.37 42.2419 170.37 41.789C170.37 41.3362 170.438 40.9399 170.585 40.5889C170.733 40.2492 170.936 39.9548 171.186 39.7284C171.435 39.5019 171.729 39.3208 172.069 39.2076C172.398 39.0943 172.76 39.0377 173.145 39.0377C173.508 39.0377 173.836 39.0943 174.153 39.2189C174.459 39.3434 174.753 39.5359 175.037 39.819L174.334 40.5549C174.176 40.3964 173.983 40.2719 173.779 40.2039C173.576 40.1247 173.36 40.0907 173.156 40.0907C172.919 40.0907 172.703 40.136 172.499 40.2152C172.296 40.2945 172.114 40.4077 171.967 40.5662C171.82 40.7134 171.695 40.8946 171.616 41.0984C171.525 41.3022 171.491 41.54 171.491 41.8004C171.491 42.0721 171.537 42.3212 171.627 42.525C171.718 42.7288 171.831 42.91 171.99 43.0572C172.137 43.2043 172.318 43.3062 172.522 43.3855C172.726 43.4534 172.941 43.4874 173.168 43.4874C173.394 43.4874 173.621 43.4534 173.836 43.3742C174.051 43.2949 174.244 43.1704 174.414 43.0005L175.116 43.7252Z" fill="#989898"/>
<path d="M180.168 39.1623H181.233V44.4045H180.19L180.134 43.5553C180.043 43.7252 179.941 43.8724 179.794 43.9969C179.658 44.1215 179.5 44.2234 179.341 44.3026C179.171 44.3819 179.001 44.4498 178.831 44.4838C178.661 44.5177 178.491 44.5404 178.322 44.5404C177.936 44.5404 177.585 44.4838 177.257 44.3592C176.928 44.2347 176.645 44.0648 176.407 43.8271C176.17 43.5893 175.977 43.3062 175.841 42.9553C175.705 42.6156 175.637 42.2193 175.637 41.7664C175.637 41.3248 175.705 40.9399 175.852 40.6002C176 40.2605 176.192 39.9775 176.43 39.7397C176.679 39.5133 176.962 39.3321 177.291 39.2189C177.619 39.0943 177.97 39.0377 178.344 39.0377C178.718 39.0377 179.069 39.117 179.398 39.2868C179.726 39.4566 179.964 39.6831 180.134 39.9775L180.168 39.1623ZM178.446 40.0454C178.208 40.0454 177.993 40.0907 177.789 40.17C177.585 40.2492 177.404 40.3624 177.246 40.5209C177.087 40.6681 176.962 40.8493 176.883 41.0644C176.793 41.2795 176.747 41.5173 176.747 41.789C176.747 42.0608 176.793 42.2986 176.883 42.5137C176.974 42.7288 177.098 42.91 177.246 43.0572C177.404 43.2043 177.585 43.3176 177.789 43.4081C177.993 43.4874 178.22 43.5327 178.446 43.5327C178.82 43.5327 179.137 43.4421 179.386 43.2723C179.635 43.1024 179.828 42.8873 179.953 42.6269C180.077 42.3665 180.145 42.0834 180.145 41.789C180.145 41.4833 180.077 41.2116 179.953 40.9512C179.828 40.6908 179.635 40.4757 179.386 40.3058C179.137 40.136 178.82 40.0454 178.446 40.0454Z" fill="#989898"/>
<path d="M183.747 39.1623L183.826 39.8529C184.019 39.5246 184.257 39.2981 184.529 39.1962C184.8 39.0943 185.084 39.0377 185.367 39.0377C185.627 39.0377 185.865 39.083 186.092 39.1623C186.318 39.2415 186.511 39.3547 186.658 39.4906L186.16 40.4417C186.024 40.3398 185.888 40.2605 185.752 40.2039C185.616 40.1473 185.446 40.1247 185.231 40.1247C185.038 40.1247 184.857 40.1586 184.687 40.2152C184.517 40.2719 184.37 40.3624 184.245 40.4757C184.121 40.5889 184.019 40.7361 183.94 40.9172C183.86 41.0984 183.826 41.3135 183.826 41.5513V44.3932H182.716V39.1509H183.747V39.1623Z" fill="#989898"/>
<path d="M192.548 36.9773V44.4048H191.517L191.449 43.5782C191.245 43.9066 190.973 44.1557 190.645 44.2915C190.316 44.4387 189.976 44.5067 189.625 44.5067C189.24 44.5067 188.889 44.4501 188.561 44.3255C188.232 44.201 187.949 44.0311 187.711 43.7934C187.473 43.5556 187.281 43.2725 187.145 42.9329C187.009 42.5932 186.941 42.2082 186.941 41.7667C186.941 41.3138 187.009 40.9288 187.145 40.5891C187.281 40.2495 187.462 39.9664 187.7 39.7286C187.938 39.5022 188.221 39.321 188.538 39.2078C188.855 39.0946 189.218 39.0266 189.591 39.0266C189.75 39.0266 189.92 39.0493 190.101 39.0833C190.282 39.1172 190.452 39.1852 190.622 39.2644C190.792 39.3437 190.95 39.4456 191.086 39.5588C191.234 39.672 191.347 39.8192 191.426 39.9777V36.966H192.548V36.9773ZM189.716 40.0796C189.478 40.0796 189.263 40.1136 189.059 40.1928C188.855 40.2721 188.685 40.3853 188.538 40.5325C188.391 40.6797 188.277 40.8495 188.187 41.0647C188.108 41.2685 188.062 41.5176 188.062 41.778C188.062 42.0384 188.108 42.2762 188.187 42.4913C188.266 42.7064 188.391 42.8876 188.538 43.0348C188.685 43.1819 188.866 43.2952 189.059 43.3744C189.263 43.4537 189.478 43.4877 189.716 43.4877C189.942 43.4877 190.158 43.4424 190.362 43.3631C190.565 43.2838 190.735 43.1706 190.894 43.0121C191.041 42.8649 191.166 42.6838 191.256 42.4686C191.347 42.2535 191.392 42.0271 191.392 41.7667C191.392 41.5062 191.347 41.2798 191.256 41.076C191.166 40.8722 191.052 40.691 190.894 40.5438C190.747 40.3966 190.565 40.2834 190.362 40.1928C190.158 40.1249 189.942 40.0796 189.716 40.0796Z" fill="#989898"/>
<path d="M194.495 43.8276C194.586 43.8276 194.654 43.839 194.722 43.8729C194.79 43.9069 194.846 43.9409 194.892 43.9861C194.937 44.0314 194.971 44.0994 194.994 44.156C195.016 44.2239 195.028 44.2919 195.028 44.3711C195.028 44.439 195.016 44.5183 194.994 44.5862C194.971 44.6542 194.937 44.7108 194.892 44.7561C194.846 44.8014 194.79 44.8466 194.722 44.8693C194.654 44.9033 194.575 44.9146 194.495 44.9146C194.416 44.9146 194.337 44.9033 194.269 44.8693C194.201 44.8353 194.144 44.8014 194.099 44.7561C194.053 44.7108 194.02 44.6428 193.997 44.5862C193.974 44.5183 193.963 44.4504 193.963 44.3711C193.963 44.3032 193.974 44.2239 193.997 44.156C194.02 44.088 194.053 44.0314 194.099 43.9861C194.144 43.9409 194.201 43.8956 194.269 43.8729C194.337 43.839 194.416 43.8276 194.495 43.8276ZM194.099 44.3711C194.099 44.4277 194.11 44.4843 194.121 44.5409C194.144 44.5976 194.167 44.6315 194.201 44.6768C194.235 44.7108 194.28 44.7447 194.325 44.7674C194.371 44.79 194.427 44.8014 194.495 44.8014C194.563 44.8014 194.62 44.79 194.665 44.7674C194.71 44.7447 194.756 44.7108 194.79 44.6768C194.824 44.6428 194.846 44.5976 194.869 44.5409C194.892 44.4843 194.892 44.439 194.892 44.3711C194.892 44.3145 194.88 44.2579 194.869 44.2013C194.846 44.1447 194.824 44.1107 194.79 44.0654C194.756 44.0314 194.71 43.9975 194.665 43.9748C194.62 43.9522 194.563 43.9409 194.495 43.9409C194.427 43.9409 194.371 43.9522 194.325 43.9748C194.28 43.9975 194.235 44.0314 194.201 44.0654C194.167 44.0994 194.144 44.1447 194.121 44.2013C194.11 44.2579 194.099 44.3145 194.099 44.3711ZM194.756 44.6202V44.6428H194.62L194.473 44.4617H194.405V44.6428H194.28V44.0881H194.541C194.586 44.0881 194.62 44.0994 194.642 44.1107C194.676 44.122 194.699 44.1447 194.71 44.1673C194.722 44.1899 194.733 44.2126 194.744 44.2466C194.744 44.2805 194.744 44.3032 194.733 44.3258C194.722 44.3485 194.71 44.3711 194.688 44.3937C194.665 44.4164 194.642 44.4277 194.608 44.439L194.756 44.6202ZM194.416 44.2013V44.3485H194.552C194.575 44.3485 194.597 44.3371 194.608 44.3258C194.62 44.3145 194.631 44.2918 194.631 44.2692C194.631 44.2466 194.62 44.2352 194.608 44.2126C194.597 44.2013 194.575 44.19 194.552 44.19H194.416V44.2013Z" fill="#989898"/>
<path d="M158.823 33.5719C163.952 33.5719 168.109 29.4145 168.109 24.2861C168.109 19.1577 163.952 15.0003 158.823 15.0003C153.695 15.0003 149.538 19.1577 149.538 24.2861C149.538 29.4145 153.695 33.5719 158.823 33.5719Z" fill="#EB001B"/>
<path d="M170.236 33.5716C175.365 33.5716 179.522 29.4142 179.522 24.2858C179.522 19.1574 175.365 15 170.236 15C165.108 15 160.951 19.1574 160.951 24.2858C160.951 29.4142 165.108 33.5716 170.236 33.5716Z" fill="#F79E1B"/>
<path fill-rule="evenodd" clip-rule="evenodd" d="M164.53 16.9721C162.351 18.6714 160.95 21.3212 160.95 24.2981C160.95 27.275 162.351 29.9248 164.53 31.6241C166.708 29.9248 168.109 27.275 168.109 24.2981C168.109 21.3212 166.708 18.6714 164.53 16.9721Z" fill="#FF5F01"/>
<path d="M233.226 34.3993C233.699 34.4945 234.15 34.5968 234.605 34.6743C236.232 34.9599 237.869 35.0903 239.52 34.974C240.533 34.8999 241.524 34.7307 242.449 34.283C243.595 33.7295 244.287 32.8375 244.47 31.5684C244.499 31.3709 244.513 31.17 244.513 30.9726C244.516 29.0935 244.513 27.2109 244.516 25.3318C244.516 25.1767 244.481 25.1203 244.312 25.1203C243.006 25.1273 241.701 25.1273 240.395 25.1273C240.339 25.1273 240.279 25.1273 240.194 25.1273C240.194 25.2261 240.194 25.3036 240.194 25.3847C240.194 27.2814 240.201 29.1816 240.187 31.0783C240.18 31.8293 239.891 32.4603 239.27 32.9151C238.864 33.2112 238.402 33.3523 237.904 33.384C236.606 33.4651 235.375 33.1689 234.178 32.693C233.928 32.5943 233.688 32.4709 233.434 32.3722C233.293 32.3193 233.247 32.2417 233.247 32.0901C233.258 29.3332 233.254 26.5763 233.254 23.8229C233.254 22.5643 233.254 21.3093 233.254 20.0507C233.258 17.6287 234.845 15.6403 237.213 15.1221C237.576 15.041 237.957 15.0163 238.331 15.0163C240.653 15.0128 242.978 15.0233 245.3 15.0198C245.483 15.0198 245.522 15.0762 245.518 15.249C245.515 23.4457 245.515 31.6424 245.515 39.8356C245.515 42.24 243.874 44.2671 241.517 44.7466C241.164 44.8206 240.794 44.8382 240.431 44.8382C238.102 44.8488 235.773 44.8453 233.445 44.8559C233.268 44.8559 233.219 44.8136 233.219 44.6302C233.226 41.281 233.222 37.9319 233.222 34.5827C233.226 34.5298 233.226 34.4663 233.226 34.3993Z" fill="#989898"/>
<path d="M247.057 44.9036C247.057 41.0785 247.057 37.2745 247.057 33.467C247.071 33.467 247.089 33.4599 247.096 33.4634C247.939 34.1298 248.913 34.5035 249.95 34.7291C251.093 34.9794 252.254 35.0358 253.418 35.0217C254.893 35.0041 256.343 34.7784 257.776 34.4471C257.91 34.4153 257.97 34.373 257.966 34.2179C257.956 33.6291 257.963 33.0439 257.963 32.4552C257.963 32.4058 257.956 32.3529 257.952 32.2895C257.599 32.4411 257.264 32.5927 256.922 32.7302C255.729 33.2061 254.491 33.4423 253.203 33.3753C252.663 33.3471 252.145 33.2343 251.654 33.0016C250.867 32.6314 250.328 32.0392 250.066 31.2107C249.791 30.3399 249.788 29.4585 250.105 28.5983C250.564 27.3573 251.541 26.7615 252.794 26.5853C254.417 26.3561 255.959 26.7122 257.437 27.3785C257.603 27.4525 257.765 27.5301 257.949 27.6182C257.956 27.5512 257.966 27.5019 257.966 27.4525C257.966 26.8602 257.963 26.2644 257.97 25.6722C257.97 25.5417 257.927 25.4924 257.8 25.4642C255.98 25.0305 254.135 24.8084 252.261 24.893C251.012 24.9494 249.781 25.1151 248.609 25.5805C248.059 25.7991 247.547 26.0811 247.067 26.4724C247.06 26.4019 247.053 26.3526 247.053 26.3032C247.053 24.195 247.05 22.0832 247.053 19.975C247.057 17.6094 248.69 15.5999 251.019 15.1134C251.39 15.0358 251.778 15.0076 252.155 15.0076C254.48 14.997 256.802 15.0006 259.124 15.0006C259.194 15.0006 259.261 15.0076 259.349 15.0111C259.349 15.0887 259.349 15.1522 259.349 15.2156C259.349 23.4229 259.349 31.6302 259.349 39.841C259.349 42.2595 257.793 44.2443 255.472 44.7837C255.158 44.8578 254.833 44.9036 254.512 44.9071C252.071 44.9177 249.632 44.9142 247.191 44.9142C247.152 44.9107 247.113 44.9071 247.057 44.9036Z" fill="#989898"/>
<path d="M260.824 44.8754C260.824 41.498 260.824 38.1452 260.824 34.7643C260.901 34.7643 260.975 34.7643 261.05 34.7643C263.562 34.7678 266.07 34.7714 268.582 34.7714C269.225 34.7714 269.846 34.6515 270.417 34.3483C271.07 34.0028 271.539 33.4987 271.691 32.7548C271.881 31.8452 271.599 31.0978 270.876 30.5232C270.35 30.1072 269.729 29.9203 269.069 29.8498C269.031 29.8463 268.992 29.8392 268.896 29.8322C269.147 29.7652 269.348 29.7264 269.542 29.6594C270.357 29.3774 270.932 28.8556 271.119 27.9884C271.352 26.899 270.826 25.933 269.778 25.4818C269.168 25.2173 268.519 25.1468 267.866 25.1468C265.615 25.1433 263.364 25.1539 261.11 25.1574C261.028 25.1574 260.947 25.1574 260.848 25.1574C260.848 25.0728 260.848 25.0093 260.848 24.9459C260.848 23.3136 260.848 21.6778 260.848 20.0455C260.852 17.62 262.436 15.6422 264.807 15.1239C265.171 15.0428 265.552 15.0217 265.926 15.0217C268.244 15.0182 270.558 15.0252 272.876 15.0323C273.106 15.0323 273.106 15.0323 273.106 15.2685C273.106 23.4405 273.106 31.6126 273.106 39.7846C273.106 42.2489 271.553 44.0187 269.651 44.6321C269.186 44.7837 268.706 44.8683 268.215 44.8683C265.809 44.8718 263.406 44.8718 261 44.8754C260.947 44.8754 260.894 44.8754 260.824 44.8754Z" fill="#989898"/>
<path d="M263.294 33.1318C263.294 32.261 263.294 31.4113 263.294 30.5511C263.354 30.5476 263.407 30.5441 263.456 30.5441C264.367 30.5441 265.277 30.5405 266.187 30.5476C266.826 30.5511 267.334 30.9495 267.471 31.57C267.676 32.5078 266.939 33.1529 266.297 33.1423C265.344 33.1282 264.395 33.1459 263.442 33.1494C263.396 33.1459 263.35 33.1388 263.294 33.1318Z" fill="#989898"/>
<path d="M263.298 26.6737C263.329 26.6667 263.351 26.6596 263.372 26.6596C264.236 26.6596 265.101 26.6491 265.965 26.6667C266.434 26.6773 266.826 26.8782 267.034 27.3189C267.228 27.7349 267.203 28.1544 266.935 28.5387C266.713 28.8631 266.378 29.0217 266.004 29.0323C265.122 29.0534 264.24 29.0393 263.358 29.0393C263.34 29.0393 263.326 29.0323 263.298 29.0252C263.298 28.2496 263.298 27.4705 263.298 26.6737Z" fill="#989898"/>
<path d="M91.4002 20.3955C92.7269 26.7886 94.0535 33.1817 95.3916 39.6662C94.7169 39.6662 94.0878 39.6662 93.4474 39.6662C92.7269 39.6662 91.9949 39.6433 91.2744 39.6776C90.9085 39.6891 90.7827 39.5518 90.714 39.2087C90.5997 38.534 90.4281 37.8707 90.3023 37.1959C90.2451 36.8986 90.1308 36.7842 89.822 36.7842C87.9578 36.7956 86.0822 36.7842 84.2181 36.8071C84.0465 36.8071 83.7835 37.0129 83.7148 37.1845C83.4175 37.8821 83.2002 38.614 82.9143 39.3231C82.8571 39.4604 82.6741 39.6548 82.5483 39.6548C80.9358 39.6776 79.3232 39.6662 77.6191 39.6662C77.9279 38.9 78.2024 38.2252 78.4883 37.539C80.6384 32.3697 82.777 27.2118 84.9271 22.0424C85.4646 20.7844 86.1165 20.3498 87.4889 20.3498C88.7241 20.3498 89.9707 20.3498 91.2058 20.3612C91.2401 20.3612 91.2744 20.3727 91.4002 20.3955ZM85.2817 32.7928C86.6998 32.7928 88.015 32.7928 89.3988 32.7928C88.9071 30.414 88.4267 28.0924 87.9464 25.7707C87.9006 25.7707 87.8549 25.7707 87.8091 25.7707C86.9743 28.0809 86.1394 30.4026 85.2817 32.7928Z" fill="#989898"/>
<path d="M34 20.8763C34.0572 20.6705 34.1029 20.5218 34.1487 20.3617C37.0078 20.3617 39.867 20.3274 42.7261 20.3731C43.8469 20.3846 44.6246 21.208 44.8419 22.4203C45.4938 25.897 46.1457 29.3852 46.7861 32.8619C46.809 33.0106 46.8547 33.1478 46.9234 33.4223C47.0377 33.1707 47.1063 33.022 47.1635 32.8848C48.7418 28.8819 50.32 24.8791 51.8754 20.8763C52.0355 20.476 52.2185 20.3388 52.6531 20.3388C54.1627 20.3731 55.6724 20.3502 57.2506 20.3502C57.182 20.5447 57.1477 20.7048 57.0791 20.8535C54.5516 26.9492 52.0126 33.0449 49.4852 39.1406C49.325 39.5294 49.1421 39.6781 48.696 39.6781C47.3465 39.6438 45.9856 39.6438 44.636 39.6781C44.1328 39.6895 43.9613 39.5065 43.8469 39.0491C42.6003 34.097 41.3194 29.1679 40.0728 24.2158C39.8441 23.3238 39.3981 22.6833 38.5403 22.3745C37.2366 21.9056 35.9213 21.471 34.6061 21.0364C34.4232 20.9793 34.2402 20.9335 34 20.8763Z" fill="#989898"/>
<path d="M64.6159 34.7256C66.0798 35.4575 67.5437 35.9493 69.1105 35.9264C69.8996 35.915 70.723 35.8464 71.455 35.5719C72.9417 35.0229 73.1133 33.6162 71.8553 32.667C71.3292 32.2667 70.7116 31.9808 70.1398 31.6491C69.465 31.2603 68.7674 30.9057 68.1269 30.4597C64.3872 27.9094 65.6223 23.7236 67.9439 21.9166C69.385 20.7844 71.0433 20.2468 72.8388 20.0638C74.8402 19.858 76.7844 20.121 78.7515 20.853C78.4656 22.1911 78.1911 23.5177 77.9281 24.7643C76.7501 24.5127 75.6408 24.2039 74.5086 24.0552C73.8109 23.9637 73.0675 24.0895 72.3585 24.2153C72.0039 24.2725 71.6494 24.5127 71.3749 24.7529C70.7459 25.2904 70.7116 26.0338 71.3177 26.5941C71.7295 26.983 72.2212 27.2803 72.713 27.5663C73.5136 28.0466 74.3484 28.4583 75.149 28.9386C79.4492 31.5233 78.0082 36.5554 75.2176 38.351C73.2391 39.6204 71.0661 40.0093 68.7788 39.9292C67.0633 39.872 65.3707 39.6204 63.7124 38.9228C64.0098 37.5618 64.2957 36.1894 64.6159 34.7256Z" fill="#989898"/>
<path d="M60.2929 39.6316C58.6346 39.6316 57.0221 39.6316 55.3638 39.6316C55.6954 38.042 56.0157 36.498 56.3473 34.9541C57.3309 30.3337 58.3258 25.7247 59.2751 21.0929C59.4009 20.4868 59.6182 20.3038 60.2358 20.3267C61.5853 20.3839 62.9577 20.3495 64.3872 20.3495C63.0034 26.8227 61.6539 33.2272 60.2929 39.6316Z" fill="#989898"/>
</svg>
