<svg width="32" height="32" viewBox="0 0 32 32" fill="none" xmlns="http://www.w3.org/2000/svg">
<mask id="mask0_1834_24626" style="mask-type:alpha" maskUnits="userSpaceOnUse" x="0" y="0" width="32" height="32">
<rect width="32" height="32" fill="#D9D9D9"/>
</mask>
<g mask="url(#mask0_1834_24626)">
<path d="M9.83268 22.4103V9.58959C9.83268 9.30625 9.92857 9.06881 10.1203 8.87725C10.3121 8.68547 10.5497 8.58959 10.833 8.58959C11.1166 8.58959 11.354 8.68547 11.5454 8.87725C11.7369 9.06881 11.8327 9.30625 11.8327 9.58959V22.4103C11.8327 22.6936 11.7368 22.931 11.545 23.1226C11.3532 23.3144 11.1157 23.4103 10.8323 23.4103C10.5488 23.4103 10.3113 23.3144 10.12 23.1226C9.92846 22.931 9.83268 22.6936 9.83268 22.4103ZM14.9994 27.6666V4.33325C14.9994 4.04992 15.0952 3.81247 15.287 3.62092C15.4788 3.42914 15.7164 3.33325 15.9997 3.33325C16.2832 3.33325 16.5207 3.42914 16.712 3.62092C16.9036 3.81247 16.9994 4.04992 16.9994 4.33325V27.6666C16.9994 27.9499 16.9035 28.1874 16.7117 28.3789C16.5199 28.5707 16.2824 28.6666 15.999 28.6666C15.7155 28.6666 15.478 28.5707 15.2867 28.3789C15.0951 28.1874 14.9994 27.9499 14.9994 27.6666ZM4.66602 17.2049V14.7949C4.66602 14.5116 4.7619 14.274 4.95368 14.0823C5.14546 13.8907 5.38302 13.7949 5.66635 13.7949C5.9499 13.7949 6.18735 13.8907 6.37868 14.0823C6.57024 14.274 6.66602 14.5116 6.66602 14.7949V17.2049C6.66602 17.4883 6.57013 17.7258 6.37835 17.9176C6.18657 18.1091 5.94902 18.2049 5.66568 18.2049C5.38213 18.2049 5.14468 18.1091 4.95335 17.9176C4.76179 17.7258 4.66602 17.4883 4.66602 17.2049ZM20.166 22.4103V9.58959C20.166 9.30625 20.2619 9.06881 20.4537 8.87725C20.6455 8.68547 20.883 8.58959 21.1664 8.58959C21.4499 8.58959 21.6874 8.68547 21.8787 8.87725C22.0702 9.06881 22.166 9.30625 22.166 9.58959V22.4103C22.166 22.6936 22.0701 22.931 21.8784 23.1226C21.6866 23.3144 21.449 23.4103 21.1657 23.4103C20.8821 23.4103 20.6447 23.3144 20.4534 23.1226C20.2618 22.931 20.166 22.6936 20.166 22.4103ZM25.3327 17.2049V14.7949C25.3327 14.5116 25.4286 14.274 25.6204 14.0823C25.8121 13.8907 26.0497 13.7949 26.333 13.7949C26.6166 13.7949 26.854 13.8907 27.0454 14.0823C27.2369 14.274 27.3327 14.5116 27.3327 14.7949V17.2049C27.3327 17.4883 27.2368 17.7258 27.045 17.9176C26.8532 18.1091 26.6157 18.2049 26.3324 18.2049C26.0488 18.2049 25.8114 18.1091 25.62 17.9176C25.4285 17.7258 25.3327 17.4883 25.3327 17.2049Z" fill="#F5F5F4"/>
</g>
</svg>
