<svg width="32" height="32" viewBox="0 0 32 32" fill="none" xmlns="http://www.w3.org/2000/svg">
<mask id="mask0_564_10305" style="mask-type:alpha" maskUnits="userSpaceOnUse" x="0" y="0" width="32" height="32">
<rect width="32" height="32" fill="#D9D9D9"/>
</mask>
<g mask="url(#mask0_564_10305)">
<path d="M8.05125 23.3333L5.38192 26.0023C5.00259 26.3819 4.56625 26.4679 4.07292 26.2603C3.57981 26.0526 3.33325 25.6786 3.33325 25.1383V5.74368C3.33325 5.07012 3.56659 4.50001 4.03325 4.03334C4.49992 3.56668 5.07003 3.33334 5.74359 3.33334H26.2563C26.9298 3.33334 27.4999 3.56668 27.9666 4.03334C28.4333 4.50001 28.6666 5.07012 28.6666 5.74368V20.923C28.6666 21.5966 28.4333 22.1667 27.9666 22.6333C27.4999 23.1 26.9298 23.3333 26.2563 23.3333H8.05125ZM7.19992 21.3333H26.2563C26.3589 21.3333 26.4529 21.2906 26.5383 21.205C26.6238 21.1197 26.6666 21.0257 26.6666 20.923V5.74368C26.6666 5.64101 26.6238 5.54701 26.5383 5.46168C26.4529 5.37612 26.3589 5.33334 26.2563 5.33334H5.74359C5.64092 5.33334 5.54692 5.37612 5.46159 5.46168C5.37603 5.54701 5.33325 5.64101 5.33325 5.74368V23.1797L7.19992 21.3333ZM9.33325 18.3333H17.3333C17.617 18.3333 17.8546 18.2376 18.0459 18.046C18.2375 17.8547 18.3333 17.6171 18.3333 17.3333C18.3333 17.0496 18.2375 16.812 18.0459 16.6207C17.8546 16.4291 17.617 16.3333 17.3333 16.3333H9.33325C9.04947 16.3333 8.81192 16.4291 8.62058 16.6207C8.42903 16.812 8.33325 17.0496 8.33325 17.3333C8.33325 17.6171 8.42903 17.8547 8.62058 18.046C8.81192 18.2376 9.04947 18.3333 9.33325 18.3333ZM9.33325 14.3333H22.6666C22.9504 14.3333 23.1879 14.2376 23.3793 14.046C23.5708 13.8547 23.6666 13.6171 23.6666 13.3333C23.6666 13.0496 23.5708 12.812 23.3793 12.6207C23.1879 12.4291 22.9504 12.3333 22.6666 12.3333H9.33325C9.04947 12.3333 8.81192 12.4291 8.62058 12.6207C8.42903 12.812 8.33325 13.0496 8.33325 13.3333C8.33325 13.6171 8.42903 13.8547 8.62058 14.046C8.81192 14.2376 9.04947 14.3333 9.33325 14.3333ZM9.33325 10.3333H22.6666C22.9504 10.3333 23.1879 10.2376 23.3793 10.046C23.5708 9.85468 23.6666 9.61712 23.6666 9.33334C23.6666 9.04957 23.5708 8.81201 23.3793 8.62068C23.1879 8.42912 22.9504 8.33334 22.6666 8.33334H9.33325C9.04947 8.33334 8.81192 8.42912 8.62058 8.62068C8.42903 8.81201 8.33325 9.04957 8.33325 9.33334C8.33325 9.61712 8.42903 9.85468 8.62058 10.046C8.81192 10.2376 9.04947 10.3333 9.33325 10.3333Z" fill="#F5F5F4"/>
</g>
</svg>
