<svg width="32" height="32" viewBox="0 0 32 32" fill="none" xmlns="http://www.w3.org/2000/svg">
<path d="M6.36638 22.5616C5.69636 22.5616 5.12925 22.3295 4.66504 21.8652C4.20083 21.401 3.96872 20.8339 3.96872 20.1639V5.73784C3.96872 5.69518 3.97082 5.65683 3.97502 5.62279C3.97944 5.58874 3.98585 5.5505 3.99425 5.50806L3.05057 4.56438C2.85339 4.3672 2.75259 4.13299 2.74817 3.86176C2.74397 3.59053 2.84477 3.35201 3.05057 3.14621C3.25637 2.94041 3.49268 2.83751 3.75949 2.83751C4.02653 2.83751 4.26294 2.94041 4.46874 3.14621L28.9496 27.6271C29.1468 27.8243 29.2475 28.0551 29.2517 28.3194C29.2559 28.5838 29.1552 28.8189 28.9496 29.0247C28.7438 29.2305 28.5074 29.3334 28.2404 29.3334C27.9734 29.3334 27.737 29.2305 27.5315 29.0247L21.0477 22.5616H6.36638ZM29.1688 5.0644V22.6534C29.1688 22.9282 29.0468 23.1146 28.8027 23.2128C28.5587 23.3109 28.339 23.2622 28.1436 23.0666L25.6491 20.5721H27.1793V5.0644C27.1793 4.94526 27.1411 4.84744 27.0646 4.77096C26.9881 4.69447 26.8903 4.65623 26.7712 4.65623H9.75844C9.42708 4.65623 9.17851 4.55289 9.01272 4.3462C8.84693 4.1393 8.76403 3.91183 8.76403 3.66381C8.76403 3.41579 8.84693 3.18755 9.01272 2.9791C9.17851 2.77086 9.42708 2.66675 9.75844 2.66675H26.7712C27.4412 2.66675 28.0083 2.89885 28.4725 3.36307C28.9367 3.82728 29.1688 4.39439 29.1688 5.0644ZM6.36638 20.5721H19.0583L16.074 17.5879H9.93716C9.65532 17.5879 9.41912 17.4925 9.22858 17.3017C9.03781 17.1109 8.94242 16.8746 8.94242 16.5928C8.94242 16.3107 9.03781 16.0745 9.22858 15.8842C9.41912 15.6936 9.65532 15.5984 9.93716 15.5984H14.0846L12.0951 13.6089H9.93716C9.65532 13.6089 9.41912 13.5135 9.22858 13.3227C9.03781 13.132 8.94242 12.8957 8.94242 12.6138C8.94242 12.3318 9.03781 12.0956 9.22858 11.9052C9.41912 11.7147 9.65532 11.6194 9.93716 11.6194H11.4037V12.9175L5.9582 7.47201V20.1639C5.9582 20.283 5.99644 20.3809 6.07293 20.4573C6.14941 20.5338 6.24723 20.5721 6.36638 20.5721ZM24.1951 16.5934C24.1951 16.8755 24.0997 17.1117 23.909 17.302C23.7184 17.4926 23.4822 17.5879 23.2004 17.5879H22.8433C22.5614 17.5879 22.3252 17.4925 22.1347 17.3017C21.9439 17.1109 21.8485 16.8746 21.8485 16.5928C21.8485 16.3107 21.9439 16.0745 22.1347 15.8842C22.3252 15.6936 22.5614 15.5984 22.8433 15.5984H23.2004C23.4822 15.5984 23.7184 15.6938 23.909 15.8845C24.0997 16.0753 24.1951 16.3116 24.1951 16.5934ZM23.2004 13.6089H19.109C18.7774 13.6089 18.5287 13.5056 18.3629 13.2989C18.1972 13.092 18.1143 12.8645 18.1143 12.6165C18.1143 12.3685 18.1972 12.1402 18.3629 11.9318C18.5287 11.7235 18.7774 11.6194 19.109 11.6194H23.2004C23.4822 11.6194 23.7184 11.7148 23.909 11.9056C24.0997 12.0963 24.1951 12.3326 24.1951 12.6145C24.1951 12.8965 24.0997 13.1327 23.909 13.3231C23.7184 13.5136 23.4822 13.6089 23.2004 13.6089ZM23.2004 9.62993H15.13C14.7985 9.62993 14.5498 9.52659 14.384 9.3199C14.2182 9.113 14.1353 8.88553 14.1353 8.63751C14.1353 8.38949 14.2182 8.16125 14.384 7.9528C14.5498 7.74457 14.7985 7.64045 15.13 7.64045H23.2004C23.4822 7.64045 23.7184 7.73584 23.909 7.9266C24.0997 8.11737 24.1951 8.35368 24.1951 8.63552C24.1951 8.91759 24.0997 9.15378 23.909 9.34411C23.7184 9.53466 23.4822 9.62993 23.2004 9.62993Z" fill="#F5F5F4"/>
</svg>
