<svg width="32" height="32" viewBox="0 0 32 32" fill="none" xmlns="http://www.w3.org/2000/svg">
<mask id="mask0_2901_1044" style="mask-type:alpha" maskUnits="userSpaceOnUse" x="0" y="0" width="32" height="32">
<rect width="32" height="32" fill="#D9D9D9"/>
</mask>
<g mask="url(#mask0_2901_1044)">
<path d="M6.16311 28C5.51716 28 4.97041 27.7762 4.52287 27.3287C4.07533 26.8811 3.85156 26.3344 3.85156 25.6885V13.6886C3.85156 13.0427 4.07533 12.4959 4.52287 12.0484C4.97041 11.6008 5.51716 11.3771 6.16311 11.3771H25.8351C26.481 11.3771 27.0278 11.6008 27.4753 12.0484C27.9228 12.4959 28.1466 13.0427 28.1466 13.6886V25.6885C28.1466 26.3344 27.9228 26.8811 27.4753 27.3287C27.0278 27.7762 26.481 28 25.8351 28H6.16311ZM6.16311 26.082H25.8351C25.9335 26.082 26.0237 26.0409 26.1055 25.9589C26.1876 25.8771 26.2286 25.7869 26.2286 25.6885V13.6886C26.2286 13.5902 26.1876 13.5 26.1055 13.4182C26.0237 13.3361 25.9335 13.2951 25.8351 13.2951H6.16311C6.06465 13.2951 5.9745 13.3361 5.89267 13.4182C5.81062 13.5 5.76959 13.5902 5.76959 13.6886V25.6885C5.76959 25.7869 5.81062 25.8771 5.89267 25.9589C5.9745 26.0409 6.06465 26.082 6.16311 26.082ZM14.6539 23.6032L19.8227 20.1706C19.9981 20.0508 20.0858 19.8901 20.0858 19.6885C20.0858 19.4869 19.9981 19.3262 19.8227 19.2065L14.6539 15.7738C14.4572 15.6411 14.2593 15.6271 14.0603 15.732C13.861 15.837 13.7614 16.0051 13.7614 16.2361V23.141C13.7614 23.372 13.861 23.54 14.0603 23.6451C14.2593 23.75 14.4572 23.736 14.6539 23.6032ZM7.04828 9.60672C6.77613 9.60672 6.54831 9.51487 6.36482 9.33117C6.18112 9.14768 6.08926 8.91986 6.08926 8.64771C6.08926 8.37556 6.18112 8.14763 6.36482 7.96393C6.54831 7.78044 6.77613 7.68869 7.04828 7.68869H24.9499C25.222 7.68869 25.4499 7.78044 25.6334 7.96393C25.8171 8.14763 25.9089 8.37556 25.9089 8.64771C25.9089 8.91986 25.8171 9.14768 25.6334 9.33117C25.4499 9.51487 25.222 9.60672 24.9499 9.60672H7.04828ZM10.8843 5.91803C10.6122 5.91803 10.3844 5.82629 10.2009 5.64279C10.0172 5.45909 9.92533 5.23116 9.92533 4.95902C9.92533 4.68687 10.0172 4.45905 10.2009 4.27556C10.3844 4.09185 10.6122 4 10.8843 4H21.1138C21.386 4 21.6138 4.09185 21.7973 4.27556C21.981 4.45905 22.0729 4.68687 22.0729 4.95902C22.0729 5.23116 21.981 5.45909 21.7973 5.64279C21.6138 5.82629 21.386 5.91803 21.1138 5.91803H10.8843Z" fill="#F5F5F4"/>
</g>
</svg>
