<svg width="32" height="32" viewBox="0 0 32 32" fill="none" xmlns="http://www.w3.org/2000/svg">
<path d="M8.52464 23.4661H5.05152C4.75169 23.4661 4.50041 23.3646 4.2977 23.1615C4.09476 22.9585 3.99329 22.7068 3.99329 22.4066C3.99329 22.1066 4.09476 21.8552 4.2977 21.6524C4.50041 21.4498 4.75169 21.3485 5.05152 21.3485H9.36593C9.72714 21.3485 10.03 21.4707 10.2746 21.7152C10.5189 21.9599 10.6411 22.2629 10.6411 22.6244V26.9412C10.6411 27.2412 10.5396 27.4926 10.3367 27.6954C10.1337 27.8985 9.88235 28 9.58252 28C9.28245 28 9.03118 27.8985 8.8287 27.6954C8.62599 27.4926 8.52464 27.2412 8.52464 26.9412V23.4661ZM23.4619 23.4661V26.9412C23.4619 27.2412 23.3605 27.4926 23.1575 27.6954C22.9546 27.8985 22.7032 28 22.4033 28C22.1033 28 21.852 27.8985 21.6495 27.6954C21.4468 27.4926 21.3455 27.2412 21.3455 26.9412V22.6244C21.3455 22.2629 21.4678 21.9599 21.7123 21.7152C21.9567 21.4707 22.2596 21.3485 22.621 21.3485H26.9351C27.2349 21.3485 27.4863 21.45 27.6892 21.6531C27.8919 21.8561 27.9933 22.1076 27.9933 22.4076C27.9933 22.7079 27.8919 22.9593 27.6892 23.1619C27.4863 23.3647 27.2349 23.4661 26.9351 23.4661H23.4619ZM8.52464 8.53388V5.05882C8.52464 4.75882 8.62611 4.50741 8.82905 4.30459C9.032 4.10153 9.28351 4 9.58357 4C9.88341 4 10.1347 4.10153 10.3374 4.30459C10.5399 4.50741 10.6411 4.75882 10.6411 5.05882V9.37565C10.6411 9.73706 10.5189 10.0401 10.2746 10.2848C10.03 10.5293 9.72714 10.6515 9.36593 10.6515H5.05152C4.75169 10.6515 4.50041 10.55 4.2977 10.3469C4.09476 10.1439 3.99329 9.89235 3.99329 9.59235C3.99329 9.29212 4.09476 9.04071 4.2977 8.83812C4.50041 8.63529 4.75169 8.53388 5.05152 8.53388H8.52464ZM23.4619 8.53388H26.9351C27.2349 8.53388 27.4863 8.63541 27.6892 8.83847C27.8919 9.04153 27.9933 9.29318 27.9933 9.59341C27.9933 9.89341 27.8919 10.1448 27.6892 10.3476C27.4863 10.5502 27.2349 10.6515 26.9351 10.6515H22.621C22.2596 10.6515 21.9567 10.5293 21.7123 10.2848C21.4678 10.0401 21.3455 9.73706 21.3455 9.37565V5.05882C21.3455 4.75882 21.4469 4.50741 21.6499 4.30459C21.8528 4.10153 22.1043 4 22.4044 4C22.7042 4 22.9555 4.10153 23.1582 4.30459C23.3607 4.50741 23.4619 4.75882 23.4619 5.05882V8.53388Z" fill="#F5F5F4"/>
</svg>
