<svg width="32" height="32" viewBox="0 0 32 32" fill="none" xmlns="http://www.w3.org/2000/svg">
<path d="M6.11106 25.8824H9.58611C9.88611 25.8824 10.1376 25.9839 10.3407 26.1869C10.5435 26.39 10.6449 26.6415 10.6449 26.9415C10.6449 27.2418 10.5435 27.4932 10.3407 27.6958C10.1376 27.8986 9.88611 28 9.58611 28H5.26964C4.908 28 4.60494 27.8776 4.36047 27.6329C4.11576 27.3885 3.99341 27.0854 3.99341 26.7238V22.4073C3.99341 22.1073 4.09494 21.8558 4.298 21.6527C4.50106 21.4499 4.75258 21.3485 5.05258 21.3485C5.35282 21.3485 5.60423 21.4499 5.80682 21.6527C6.00964 21.8558 6.11106 22.1073 6.11106 22.4073V25.8824ZM25.8892 25.8824V22.4073C25.8892 22.1073 25.9907 21.8558 26.1938 21.6527C26.3968 21.4499 26.6485 21.3485 26.9487 21.3485C27.2487 21.3485 27.5001 21.4499 27.7029 21.6527C27.9055 21.8558 28.0068 22.1073 28.0068 22.4073V26.7238C28.0068 27.0854 27.8846 27.3885 27.6401 27.6329C27.3954 27.8776 27.0923 28 26.7309 28H22.4141C22.1141 28 21.8627 27.8985 21.6599 27.6954C21.4568 27.4924 21.3553 27.2408 21.3553 26.9408C21.3553 26.6406 21.4568 26.3892 21.6599 26.1866C21.8627 25.9838 22.1141 25.8824 22.4141 25.8824H25.8892ZM6.11106 6.11765V9.59271C6.11106 9.89271 6.00953 10.1442 5.80647 10.3473C5.60341 10.5501 5.35188 10.6515 5.05188 10.6515C4.75164 10.6515 4.50023 10.5501 4.29764 10.3473C4.09482 10.1442 3.99341 9.89271 3.99341 9.59271V5.27623C3.99341 4.91459 4.11576 4.61153 4.36047 4.36706C4.60494 4.12235 4.908 4 5.26964 4H9.58611C9.88611 4 10.1376 4.10153 10.3407 4.30459C10.5435 4.50765 10.6449 4.75918 10.6449 5.05918C10.6449 5.35941 10.5435 5.61082 10.3407 5.81341C10.1376 6.01624 9.88611 6.11765 9.58611 6.11765H6.11106ZM25.8892 6.11765H22.4141C22.1141 6.11765 21.8627 6.01612 21.6599 5.81306C21.4568 5.61 21.3553 5.35847 21.3553 5.05847C21.3553 4.75823 21.4568 4.50682 21.6599 4.30424C21.8627 4.10141 22.1141 4 22.4141 4H26.7309C27.0923 4 27.3954 4.12235 27.6401 4.36706C27.8846 4.61153 28.0068 4.91459 28.0068 5.27623V9.59271C28.0068 9.89271 27.9053 10.1442 27.7022 10.3473C27.4994 10.5501 27.2479 10.6515 26.9476 10.6515C26.6474 10.6515 26.396 10.5501 26.1934 10.3473C25.9906 10.1442 25.8892 9.89271 25.8892 9.59271V6.11765Z" fill="#F5F5F4"/>
</svg>
