<svg width="18" height="18" viewBox="0 0 18 18" fill="none" xmlns="http://www.w3.org/2000/svg">
<path d="M8.8876 18C6.75919 18 4.88322 17.3504 3.25969 16.0512C1.63616 14.7522 0.595599 13.0901 0.138011 11.0647C0.0810107 10.8544 0.115334 10.6609 0.240981 10.4845C0.366452 10.308 0.544246 10.2055 0.774364 10.1769C0.990893 10.1485 1.18501 10.1913 1.35672 10.3053C1.52842 10.4193 1.64825 10.5869 1.71619 10.8082C2.11925 12.4439 2.98766 13.7868 4.32142 14.8368C5.65519 15.8868 7.17725 16.4118 8.8876 16.4118C10.9523 16.4118 12.7038 15.6926 14.142 14.2544C15.5802 12.8162 16.2994 11.0647 16.2994 9C16.2994 6.93529 15.5802 5.18382 14.142 3.74559C12.7038 2.30735 10.9523 1.58824 8.8876 1.58824C7.73101 1.58824 6.64713 1.84518 5.63595 2.35906C4.6246 2.87276 3.75372 3.57962 3.0233 4.47962H4.99854C5.22354 4.47962 5.4121 4.55576 5.56422 4.70806C5.71651 4.86035 5.79266 5.049 5.79266 5.274C5.79266 5.49918 5.71651 5.68774 5.56422 5.83968C5.4121 5.99179 5.22354 6.06785 4.99854 6.06785H1.37419C1.10295 6.06785 0.875658 5.97609 0.692305 5.79256C0.508776 5.60921 0.417011 5.38191 0.417011 5.11068V1.48632C0.417011 1.26132 0.493158 1.07277 0.645452 0.920648C0.797746 0.768354 0.986481 0.692207 1.21166 0.692207C1.43666 0.692207 1.62522 0.768354 1.77733 0.920648C1.92928 1.07277 2.00525 1.26132 2.00525 1.48632V3.20082C2.86448 2.18682 3.89348 1.39985 5.09225 0.839911C6.29083 0.27997 7.55595 0 8.8876 0C10.137 0 11.3073 0.236206 12.3984 0.708618C13.4895 1.18103 14.441 1.82312 15.2527 2.63488C16.0645 3.44665 16.7066 4.398 17.179 5.48894C17.6514 6.58006 17.8876 7.75024 17.8876 8.99947C17.8876 10.2487 17.6514 11.419 17.179 12.5103C16.7066 13.6017 16.0645 14.5534 15.2527 15.3651C14.441 16.1769 13.4895 16.819 12.3984 17.2914C11.3073 17.7638 10.137 18 8.8876 18ZM9.71216 8.67838L12.6239 11.5901C12.7706 11.7366 12.8456 11.9209 12.8489 12.1429C12.8525 12.3649 12.7775 12.5525 12.6239 12.7059C12.4706 12.8592 12.2847 12.9359 12.0662 12.9359C11.8475 12.9359 11.6615 12.8592 11.5082 12.7059L8.41113 9.60882C8.31213 9.50965 8.23951 9.40165 8.19328 9.28482C8.14722 9.168 8.12419 9.04729 8.12419 8.92271V4.5C8.12419 4.275 8.20025 4.08635 8.35236 3.93406C8.50466 3.78194 8.69339 3.70588 8.91857 3.70588C9.14357 3.70588 9.33213 3.78194 9.48425 3.93406C9.63619 4.08635 9.71216 4.275 9.71216 4.5V8.67838Z" fill="#959595"/>
</svg>
