<svg width="32" height="32" viewBox="0 0 32 32" fill="none" xmlns="http://www.w3.org/2000/svg">
<mask id="mask0_3399_4377" style="mask-type:alpha" maskUnits="userSpaceOnUse" x="0" y="0" width="32" height="32">
<rect width="32" height="32" fill="#D9D9D9"/>
</mask>
<g mask="url(#mask0_3399_4377)">
<path d="M20.6673 24.6666C20.122 24.6666 19.6523 24.4696 19.2583 24.0756C18.8643 23.6816 18.6673 23.2119 18.6673 22.6666V9.33325C18.6673 8.78792 18.8643 8.31825 19.2583 7.92425C19.6523 7.53025 20.122 7.33325 20.6673 7.33325H21.6673C22.2127 7.33325 22.6823 7.53025 23.0763 7.92425C23.4703 8.31825 23.6673 8.78792 23.6673 9.33325V22.6666C23.6673 23.2119 23.4703 23.6816 23.0763 24.0756C22.6823 24.4696 22.2127 24.6666 21.6673 24.6666H20.6673ZM10.334 24.6666C9.78865 24.6666 9.31898 24.4696 8.92498 24.0756C8.53098 23.6816 8.33398 23.2119 8.33398 22.6666V9.33325C8.33398 8.78792 8.53098 8.31825 8.92498 7.92425C9.31898 7.53025 9.78865 7.33325 10.334 7.33325H11.334C11.8793 7.33325 12.349 7.53025 12.743 7.92425C13.137 8.31825 13.334 8.78792 13.334 9.33325V22.6666C13.334 23.2119 13.137 23.6816 12.743 24.0756C12.349 24.4696 11.8793 24.6666 11.334 24.6666H10.334Z" fill="#F5F5F4"/>
</g>
</svg>
