<svg width="32" height="32" viewBox="0 0 32 32" fill="none" xmlns="http://www.w3.org/2000/svg">
<mask id="mask0_1834_24267" style="mask-type:alpha" maskUnits="userSpaceOnUse" x="0" y="0" width="32" height="32">
<rect width="32" height="32" fill="#D9D9D9"/>
</mask>
<g mask="url(#mask0_1834_24267)">
<path d="M8 24.864V7.13579C8 6.60924 8.16491 6.1771 8.49474 5.83936C8.82456 5.50195 9.20946 5.33325 9.64943 5.33325C9.78688 5.33325 9.93101 5.35503 10.0818 5.39857C10.2326 5.44179 10.3766 5.50694 10.5137 5.59403L23.2504 14.4771C23.5004 14.6639 23.6878 14.8876 23.8125 15.1483C23.9375 15.4092 24 15.6931 24 15.9999C24 16.3067 23.9375 16.5906 23.8125 16.8516C23.6878 17.1122 23.5004 17.3359 23.2504 17.5227L10.5137 26.4058C10.3763 26.4929 10.2319 26.558 10.0804 26.6013C9.92934 26.6448 9.78506 26.6666 9.64761 26.6666C9.20734 26.6666 8.82274 26.4979 8.49383 26.1605C8.16461 25.8227 8 25.3906 8 24.864Z" fill="#F5F5F4"/>
</g>
</svg>
