<svg width="32" height="32" viewBox="0 0 32 32" fill="none" xmlns="http://www.w3.org/2000/svg">
<mask id="mask0_1834_24268" style="mask-type:alpha" maskUnits="userSpaceOnUse" x="0" y="0" width="32" height="32">
<rect width="32" height="32" fill="#D9D9D9"/>
</mask>
<g mask="url(#mask0_1834_24268)">
<path d="M12.2813 15.1283H11.1533C10.9236 15.1283 10.7337 15.0532 10.5837 14.903C10.4335 14.753 10.3583 14.5633 10.3583 14.334C10.3583 14.1044 10.4335 13.9144 10.5837 13.764C10.7337 13.6135 10.9236 13.5383 11.1533 13.5383H13.0763C13.3059 13.5383 13.4958 13.6134 13.646 13.7636C13.796 13.9139 13.871 14.1038 13.871 14.3333V20.3333C13.871 20.5629 13.796 20.7528 13.646 20.903C13.496 21.0532 13.3063 21.1283 13.077 21.1283C12.8475 21.1283 12.6575 21.0532 12.507 20.903C12.3566 20.7528 12.2813 20.5629 12.2813 20.3333V15.1283ZM16.7943 21.1283C16.4166 21.1283 16.0999 21.0005 15.8443 20.745C15.5888 20.4894 15.461 20.1728 15.461 19.795V14.8716C15.461 14.4939 15.5888 14.1772 15.8443 13.9216C16.0999 13.6661 16.4166 13.5383 16.7943 13.5383H19.307C19.6848 13.5383 20.0015 13.6661 20.257 13.9216C20.5126 14.1772 20.6403 14.4939 20.6403 14.8716V19.795C20.6403 20.1728 20.5126 20.4894 20.257 20.745C20.0015 21.0005 19.6848 21.1283 19.307 21.1283H16.7943ZM17.2043 19.5383H18.8967C18.948 19.5383 18.9866 19.5255 19.0123 19.5C19.0379 19.4744 19.0507 19.436 19.0507 19.3846V15.282C19.0507 15.2306 19.0379 15.1922 19.0123 15.1666C18.9866 15.1411 18.948 15.1283 18.8967 15.1283H17.2043C17.1532 15.1283 17.1148 15.1411 17.089 15.1666C17.0635 15.1922 17.0507 15.2306 17.0507 15.282V19.3846C17.0507 19.436 17.0635 19.4744 17.089 19.5C17.1148 19.5255 17.1532 19.5383 17.2043 19.5383ZM16 28.6666C14.4269 28.6666 12.9532 28.3692 11.579 27.7743C10.2046 27.1794 9.00624 26.3709 7.98402 25.3486C6.96179 24.3264 6.15324 23.1283 5.55835 21.7543C4.96346 20.3803 4.66602 18.9066 4.66602 17.3333C4.66602 17.05 4.7619 16.8125 4.95368 16.621C5.14546 16.4292 5.38302 16.3333 5.66635 16.3333C5.9499 16.3333 6.18735 16.4292 6.37868 16.621C6.57024 16.8125 6.66602 17.05 6.66602 17.3333C6.66602 19.9333 7.57157 22.1389 9.38268 23.95C11.1938 25.7611 13.3993 26.6666 15.9993 26.6666C18.5993 26.6666 20.8049 25.7611 22.616 23.95C24.4271 22.1389 25.3327 19.9333 25.3327 17.3333C25.3327 14.7333 24.4271 12.5278 22.616 10.7166C20.8049 8.90553 18.5993 7.99998 15.9993 7.99998H15.6453L17.061 9.41531C17.2592 9.61376 17.357 9.84587 17.3543 10.1116C17.3519 10.3774 17.255 10.6136 17.0637 10.8203C16.855 11.0272 16.6165 11.1341 16.348 11.141C16.0798 11.1479 15.8422 11.0479 15.6353 10.841L12.638 7.83064C12.3969 7.58975 12.2763 7.30864 12.2763 6.98731C12.2763 6.66576 12.3969 6.38453 12.638 6.14364L15.661 3.13331C15.8592 2.93509 16.0947 2.8372 16.3673 2.83964C16.64 2.84231 16.8807 2.94709 17.0893 3.15398C17.2807 3.36064 17.3798 3.59476 17.3867 3.85631C17.3933 4.11787 17.2933 4.35209 17.0867 4.55898L15.6453 5.99998H15.9993C17.5727 5.99998 19.0463 6.29742 20.4203 6.89231C21.7943 7.4872 22.9925 8.29576 24.0147 9.31798C25.0369 10.3402 25.8455 11.5382 26.4403 12.912C27.0352 14.286 27.3327 15.7595 27.3327 17.3326C27.3327 18.9058 27.0352 20.3794 26.4403 21.7536C25.8455 23.1281 25.0369 24.3264 24.0147 25.3486C22.9925 26.3709 21.7945 27.1794 20.4207 27.7743C19.0467 28.3692 17.5731 28.6666 16 28.6666Z" fill="#F5F5F4"/>
</g>
</svg>
