<svg width="32" height="32" viewBox="0 0 32 32" fill="none" xmlns="http://www.w3.org/2000/svg">
<mask id="mask0_1834_24623" style="mask-type:alpha" maskUnits="userSpaceOnUse" x="0" y="0" width="32" height="32">
<rect width="32" height="32" fill="#D9D9D9"/>
</mask>
<g mask="url(#mask0_1834_24623)">
<path d="M9.33398 18V26.6667C9.33398 26.95 9.2381 27.1874 9.04632 27.379C8.85454 27.5708 8.61698 27.6667 8.33365 27.6667C8.0501 27.6667 7.81265 27.5708 7.62132 27.379C7.42976 27.1874 7.33398 26.95 7.33398 26.6667V7.20533C7.33398 6.86378 7.44954 6.57756 7.68065 6.34667C7.91154 6.11556 8.19776 6 8.53932 6H17.1313C17.416 6 17.6701 6.08933 17.8937 6.268C18.117 6.44667 18.2578 6.67867 18.316 6.964L18.662 8.66667H24.7953C25.1369 8.66667 25.4231 8.78167 25.654 9.01167C25.8851 9.24167 26.0007 9.52667 26.0007 9.86667V19.467C26.0007 19.807 25.8851 20.0919 25.654 20.3217C25.4231 20.5517 25.1369 20.6667 24.7953 20.6667H18.87C18.5853 20.6667 18.3312 20.5773 18.1077 20.3987C17.8843 20.22 17.7435 19.988 17.6853 19.7027L17.3393 18H9.33398ZM19.534 18.6667H24.0007V10.6667H17.998C17.7135 10.6667 17.4595 10.5773 17.236 10.3987C17.0124 10.22 16.8715 9.988 16.8133 9.70267L16.4673 8H9.33398V16H18.0033C18.2878 16 18.5418 16.0893 18.7653 16.268C18.9889 16.4467 19.1298 16.6787 19.188 16.964L19.534 18.6667Z" fill="#F5F5F4"/>
</g>
</svg>
