<svg width="32" height="32" viewBox="0 0 32 32" fill="none" xmlns="http://www.w3.org/2000/svg">
<path d="M4.87107 27.2C4.11694 27.2 3.47854 26.9387 2.95587 26.416C2.43321 25.8934 2.17188 25.2549 2.17188 24.5005V7.49962C2.17188 6.74524 2.43321 6.10672 2.95587 5.58405C3.47854 5.06138 4.11694 4.80005 4.87107 4.80005H21.8723C22.6264 4.80005 23.2648 5.06138 23.7875 5.58405C24.3102 6.10672 24.5715 6.74524 24.5715 7.49962V14.3346L28.6726 10.2335C28.8928 10.0133 29.1402 9.95827 29.4148 10.0685C29.6895 10.1785 29.8269 10.3886 29.8269 10.6987V21.3014C29.8269 21.6115 29.6895 21.8216 29.4148 21.9316C29.1402 22.0418 28.8928 21.9868 28.6726 21.7666L24.5715 17.6655V24.5005C24.5715 25.2549 24.3102 25.8934 23.7875 26.416C23.2648 26.9387 22.6264 27.2 21.8723 27.2H4.87107ZM4.87107 24.96H21.8723C22.0062 24.96 22.1162 24.917 22.2023 24.8309C22.2887 24.7448 22.3319 24.6346 22.3319 24.5005V7.49962C22.3319 7.36547 22.2887 7.25534 22.2023 7.16922C22.1162 7.08311 22.0062 7.04005 21.8723 7.04005H4.87107C4.73717 7.04005 4.62716 7.08311 4.54105 7.16922C4.45493 7.25534 4.41187 7.36547 4.41187 7.49962V24.5005C4.41187 24.6346 4.45493 24.7448 4.54105 24.8309C4.62716 24.917 4.73717 24.96 4.87107 24.96Z" fill="#F5F5F4"/>
</svg>
