<svg width="32" height="32" viewBox="0 0 32 32" fill="none" xmlns="http://www.w3.org/2000/svg">
<path d="M19.3805 23.6056C18.574 23.6056 17.8895 23.3244 17.327 22.7619C16.7645 22.1992 16.4833 21.5146 16.4833 20.7081C16.4833 19.9016 16.7645 19.2172 17.327 18.6547C17.8895 18.0922 18.574 17.811 19.3805 17.811C20.1869 17.811 20.8715 18.0922 21.4342 18.6547C21.9967 19.2172 22.2779 19.9016 22.2779 20.7081C22.2779 21.5146 21.9967 22.1992 21.4342 22.7619C20.8715 23.3244 20.1869 23.6056 19.3805 23.6056ZM7.59783 28C6.96357 28 6.42672 27.7803 5.98728 27.3408C5.54784 26.9014 5.32812 26.3646 5.32812 25.7303V8.92549C5.32812 8.29123 5.54784 7.75438 5.98728 7.31494C6.42672 6.8755 6.96357 6.65578 7.59783 6.65578H9.33613V4.96551C9.33613 4.69034 9.42831 4.46057 9.61266 4.27622C9.79702 4.09207 10.0268 4 10.302 4C10.5773 4 10.8071 4.09207 10.9912 4.27622C11.1756 4.46057 11.2678 4.69034 11.2678 4.96551V6.65578H20.781V4.94166C20.781 4.67444 20.8711 4.45063 21.0513 4.27025C21.2317 4.09008 21.4555 4 21.7227 4C21.9899 4 22.2136 4.09008 22.3938 4.27025C22.5741 4.45063 22.6643 4.67444 22.6643 4.94166V6.65578H24.4026C25.0369 6.65578 25.5737 6.8755 26.0132 7.31494C26.4526 7.75438 26.6723 8.29123 26.6723 8.92549V25.7303C26.6723 26.3646 26.4526 26.9014 26.0132 27.3408C25.5737 27.7803 25.0369 28 24.4026 28H7.59783ZM7.59783 26.1167H24.4026C24.4993 26.1167 24.5878 26.0764 24.6682 25.9958C24.7487 25.9155 24.789 25.827 24.789 25.7303V13.9477H7.21144V25.7303C7.21144 25.827 7.25172 25.9155 7.33228 25.9958C7.41264 26.0764 7.50115 26.1167 7.59783 26.1167ZM7.21144 12.0643H24.789V8.92549C24.789 8.82881 24.7487 8.7403 24.6682 8.65994C24.5878 8.57938 24.4993 8.5391 24.4026 8.5391H7.59783C7.50115 8.5391 7.41264 8.57938 7.33228 8.65994C7.25172 8.7403 7.21144 8.82881 7.21144 8.92549V12.0643Z" fill="#F5F5F4"/>
</svg>
