<svg width="32" height="32" viewBox="0 0 32 32" fill="none" xmlns="http://www.w3.org/2000/svg">
<path d="M22.0576 21.6304V9.03622C22.0576 8.74262 22.1569 8.49658 22.3556 8.29809C22.5544 8.09936 22.8006 8 23.0945 8C23.3881 8 23.6341 8.09936 23.8326 8.29809C24.0309 8.49658 24.13 8.74262 24.13 9.03622V21.6304C24.13 21.924 24.0306 22.1701 23.8319 22.3686C23.6334 22.5673 23.3873 22.6667 23.0934 22.6667C22.7996 22.6667 22.5536 22.5673 22.3553 22.3686C22.1568 22.1701 22.0576 21.924 22.0576 21.6304ZM7.86963 20.3283V10.3384C7.86963 9.96375 7.99444 9.66187 8.24405 9.43275C8.49389 9.20386 8.7853 9.08941 9.11827 9.08941C9.23341 9.08941 9.35119 9.10093 9.47163 9.12395C9.59206 9.14698 9.70547 9.20017 9.81185 9.28353L17.3151 14.2999C17.5046 14.4291 17.6445 14.5805 17.7348 14.7541C17.8251 14.9277 17.8702 15.1208 17.8702 15.3333C17.8702 15.5459 17.8251 15.739 17.7348 15.9126C17.6445 16.0862 17.5046 16.2376 17.3151 16.3668L9.81185 21.3831C9.70547 21.4665 9.59206 21.5197 9.47163 21.5427C9.35119 21.5657 9.23341 21.5773 9.11827 21.5773C8.7853 21.5773 8.49389 21.4628 8.24405 21.2339C7.99444 21.0048 7.86963 20.7029 7.86963 20.3283ZM9.94207 18.7874L15.1442 15.3333L9.94207 11.8793V18.7874Z" fill="#F5F5F4"/>
</svg>
