<svg width="32" height="32" viewBox="0 0 32 32" fill="none" xmlns="http://www.w3.org/2000/svg">
<mask id="mask0_2901_1041" style="mask-type:alpha" maskUnits="userSpaceOnUse" x="0" y="0" width="32" height="32">
<rect width="32" height="32" fill="#D9D9D9"/>
</mask>
<g mask="url(#mask0_2901_1041)">
<path d="M19.8779 26C17.0848 26 14.7189 25.0307 12.7802 23.092C10.8418 21.1536 9.87257 18.7877 9.87257 15.9943C9.87257 13.2221 10.8418 10.8633 12.7802 8.918C14.7189 6.97267 17.0848 6 19.8779 6C22.6504 6 25.0091 6.97267 26.9542 8.918C28.8996 10.8633 29.8722 13.2221 29.8722 15.9943C29.8722 18.7877 28.8996 21.1536 26.9542 23.092C25.0091 25.0307 22.6504 26 19.8779 26ZM19.8722 24C22.0945 24 23.9834 23.2222 25.5389 21.6667C27.0945 20.1111 27.8722 18.2222 27.8722 16C27.8722 13.7778 27.0945 11.8889 25.5389 10.3333C23.9834 8.77778 22.0945 8 19.8722 8C17.65 8 15.7611 8.77778 14.2056 10.3333C12.65 11.8889 11.8722 13.7778 11.8722 16C11.8722 18.2222 12.65 20.1111 14.2056 21.6667C15.7611 23.2222 17.65 24 19.8722 24ZM20.8722 15.6077V11.8717C20.8722 11.5883 20.7764 11.3509 20.5846 11.1593C20.393 10.9676 20.1555 10.8717 19.8719 10.8717C19.5884 10.8717 19.3509 10.9676 19.1596 11.1593C18.968 11.3509 18.8722 11.5883 18.8722 11.8717V15.9437C18.8722 16.1006 18.9048 16.2526 18.9699 16.3997C19.0348 16.5468 19.1239 16.6773 19.2372 16.7913L22.3312 19.8973C22.5297 20.1042 22.7652 20.2077 23.0379 20.2077C23.3104 20.2077 23.55 20.1042 23.7569 19.8973C23.9638 19.6907 24.0672 19.4531 24.0672 19.1847C24.0672 18.9162 23.9638 18.6786 23.7569 18.4717L20.8722 15.6077ZM4.46224 11.6667C4.17891 11.6667 3.94135 11.5708 3.74957 11.379C3.55802 11.1872 3.46224 10.9497 3.46224 10.6663C3.46224 10.3828 3.55802 10.1453 3.74957 9.954C3.94135 9.76244 4.17891 9.66667 4.46224 9.66667H7.53924C7.82257 9.66667 8.06002 9.76256 8.25157 9.95433C8.44335 10.1461 8.53924 10.3837 8.53924 10.667C8.53924 10.9506 8.44335 11.188 8.25157 11.3793C8.06002 11.5709 7.82257 11.6667 7.53924 11.6667H4.46224ZM3.12891 17C2.84557 17 2.60802 16.9041 2.41624 16.7123C2.22468 16.5206 2.12891 16.283 2.12891 15.9997C2.12891 15.7161 2.22468 15.4787 2.41624 15.2873C2.60802 15.0958 2.84557 15 3.12891 15H7.53924C7.82257 15 8.06002 15.0959 8.25157 15.2877C8.44335 15.4794 8.53924 15.717 8.53924 16.0003C8.53924 16.2839 8.44335 16.5213 8.25157 16.7127C8.06002 16.9042 7.82257 17 7.53924 17H3.12891ZM4.46224 22.3333C4.17891 22.3333 3.94135 22.2374 3.74957 22.0457C3.55802 21.8539 3.46224 21.6163 3.46224 21.333C3.46224 21.0494 3.55802 20.812 3.74957 20.6207C3.94135 20.4291 4.17891 20.3333 4.46224 20.3333H7.53924C7.82257 20.3333 8.06002 20.4292 8.25157 20.621C8.44335 20.8128 8.53924 21.0503 8.53924 21.3337C8.53924 21.6172 8.44335 21.8547 8.25157 22.046C8.06002 22.2376 7.82257 22.3333 7.53924 22.3333H4.46224Z" fill="#F5F5F4"/>
</g>
</svg>
