<svg width="32" height="32" viewBox="0 0 32 32" fill="none" xmlns="http://www.w3.org/2000/svg">
<mask id="mask0_2949_6450" style="mask-type:alpha" maskUnits="userSpaceOnUse" x="0" y="0" width="32" height="32">
<rect width="32" height="32" fill="#D9D9D9"/>
</mask>
<g mask="url(#mask0_2949_6450)">
<path d="M5.74359 26C5.07003 26 4.49992 25.7667 4.03325 25.3C3.56659 24.8333 3.33325 24.2632 3.33325 23.5897V8.41033C3.33325 7.73678 3.56659 7.16667 4.03325 6.7C4.49992 6.23333 5.07003 6 5.74359 6H26.2563C26.9298 6 27.4999 6.23333 27.9666 6.7C28.4333 7.16667 28.6666 7.73678 28.6666 8.41033V23.5897C28.6666 24.2632 28.4333 24.8333 27.9666 25.3C27.4999 25.7667 26.9298 26 26.2563 26H5.74359ZM5.74359 24H26.2563C26.3589 24 26.4529 23.9572 26.5383 23.8717C26.6238 23.7863 26.6666 23.6923 26.6666 23.5897V8.41033C26.6666 8.30767 26.6238 8.21367 26.5383 8.12833C26.4529 8.04278 26.3589 8 26.2563 8H5.74359C5.64092 8 5.54692 8.04278 5.46159 8.12833C5.37603 8.21367 5.33325 8.30767 5.33325 8.41033V23.5897C5.33325 23.6923 5.37603 23.7863 5.46159 23.8717C5.54692 23.9572 5.64092 24 5.74359 24ZM9.38459 20.9487H17.9486C18.2319 20.9487 18.4695 20.8528 18.6613 20.661C18.8528 20.4692 18.9486 20.2317 18.9486 19.9483C18.9486 19.6648 18.8528 19.4273 18.6613 19.236C18.4695 19.0444 18.2319 18.9487 17.9486 18.9487H9.38459C9.10125 18.9487 8.8637 19.0446 8.67192 19.2363C8.48036 19.4281 8.38459 19.6657 8.38459 19.949C8.38459 20.2326 8.48036 20.4701 8.67192 20.6617C8.8637 20.853 9.10125 20.9487 9.38459 20.9487ZM14.0513 15.8973H22.6153C22.8986 15.8973 23.1361 15.8014 23.3279 15.6097C23.5195 15.4181 23.6153 15.1806 23.6153 14.897C23.6153 14.6134 23.5195 14.376 23.3279 14.1847C23.1361 13.9931 22.8986 13.8973 22.6153 13.8973H14.0513C13.7679 13.8973 13.5304 13.9932 13.3386 14.185C13.147 14.3768 13.0513 14.6144 13.0513 14.898C13.0513 15.1813 13.147 15.4188 13.3386 15.6103C13.5304 15.8017 13.7679 15.8973 14.0513 15.8973ZM9.38492 15.8973C9.66847 15.8973 9.90592 15.8014 10.0973 15.6097C10.2888 15.4181 10.3846 15.1806 10.3846 14.897C10.3846 14.6134 10.2887 14.376 10.0969 14.1847C9.90514 13.9931 9.66759 13.8973 9.38425 13.8973C9.1007 13.8973 8.86314 13.9932 8.67159 14.185C8.48025 14.3768 8.38459 14.6144 8.38459 14.898C8.38459 15.1813 8.48047 15.4188 8.67225 15.6103C8.86403 15.8017 9.10158 15.8973 9.38492 15.8973ZM22.6156 20.9487C22.8991 20.9487 23.1367 20.8528 23.3283 20.661C23.5196 20.4692 23.6153 20.2317 23.6153 19.9483C23.6153 19.6648 23.5194 19.4273 23.3276 19.236C23.1358 19.0444 22.8983 18.9487 22.6149 18.9487C22.3314 18.9487 22.0939 19.0446 21.9026 19.2363C21.711 19.4281 21.6153 19.6657 21.6153 19.949C21.6153 20.2326 21.7111 20.4701 21.9029 20.6617C22.0947 20.853 22.3323 20.9487 22.6156 20.9487Z" fill="#F5F5F4"/>
</g>
</svg>
