<svg width="32" height="32" viewBox="0 0 32 32" fill="none" xmlns="http://www.w3.org/2000/svg">
<mask id="mask0_3363_1348" style="mask-type:alpha" maskUnits="userSpaceOnUse" x="0" y="0" width="32" height="32">
<rect width="32" height="32" fill="#D9D9D9"/>
</mask>
<g mask="url(#mask0_3363_1348)">
<path d="M25.1283 15.9667C25.1283 14.1334 24.6371 12.4602 23.6547 10.9474C22.6722 9.43425 21.3549 8.30225 19.7027 7.55136C19.4462 7.43003 19.2573 7.2488 19.136 7.00769C19.0147 6.7668 18.9998 6.52103 19.0913 6.27036C19.2013 6.00303 19.3922 5.81725 19.664 5.71303C19.9358 5.60858 20.211 5.61714 20.4897 5.73869C22.4999 6.65136 24.1089 8.02469 25.3167 9.8587C26.5242 11.6925 27.128 13.7284 27.128 15.9664C27.128 18.2041 26.5242 20.2401 25.3167 22.0744C24.1089 23.9086 22.4999 25.282 20.4897 26.1947C20.211 26.3162 19.9358 26.3248 19.664 26.2204C19.3922 26.1161 19.2013 25.9304 19.0913 25.663C18.9998 25.4124 19.0147 25.1666 19.136 24.9257C19.2573 24.6846 19.4462 24.5034 19.7027 24.382C21.3549 23.6311 22.6722 22.4991 23.6547 20.986C24.6371 19.4731 25.1283 17.8 25.1283 15.9667ZM9.82067 19.3334H6.077C5.73545 19.3334 5.44922 19.2178 5.21833 18.9867C4.98745 18.7558 4.872 18.4696 4.872 18.128V13.872C4.872 13.5305 4.98745 13.2443 5.21833 13.0134C5.44922 12.7823 5.73545 12.6667 6.077 12.6667H9.82067L13.8103 8.67703C14.1299 8.35747 14.4978 8.28536 14.914 8.46069C15.3302 8.63603 15.5383 8.94914 15.5383 9.40003V22.6C15.5383 23.0509 15.3302 23.364 14.914 23.5394C14.4978 23.7147 14.1299 23.6426 13.8103 23.323L9.82067 19.3334ZM21.5383 16.0014C21.5383 16.8331 21.3657 17.6204 21.0203 18.363C20.6752 19.1057 20.2099 19.73 19.6243 20.236C19.4354 20.3625 19.2371 20.3753 19.0293 20.2744C18.8218 20.1735 18.718 20.0068 18.718 19.7744V12.159C18.718 11.9266 18.8218 11.7599 19.0293 11.659C19.2371 11.5581 19.4354 11.5702 19.6243 11.6954C20.2099 12.2165 20.6752 12.8565 21.0203 13.6154C21.3657 14.3745 21.5383 15.1698 21.5383 16.0014ZM13.5383 11.8L10.6717 14.6667H6.87167V17.3334H10.6717L13.5383 20.2V11.8Z" fill="#F5F5F4"/>
</g>
</svg>
