<svg width="32" height="32" viewBox="0 0 32 32" fill="none" xmlns="http://www.w3.org/2000/svg">
<path d="M21.4496 25.7078C21.2297 25.8469 21.0054 25.9792 20.777 26.1047C20.5485 26.23 20.3131 26.3442 20.0708 26.4474C19.8218 26.5608 19.5629 26.5608 19.294 26.4474C19.0251 26.334 18.8409 26.1458 18.7413 25.883C18.6417 25.634 18.6563 25.3862 18.7852 25.1396C18.914 24.8931 19.103 24.7132 19.352 24.6C19.4672 24.5466 19.5767 24.4933 19.6806 24.4402C19.7844 24.3868 19.8896 24.325 19.9961 24.2546L15.1932 19.4513V22.7961C15.1932 23.253 14.9841 23.5687 14.5658 23.7431C14.1475 23.9173 13.7777 23.8438 13.4563 23.5227L9.44694 19.5133H5.68478C5.33953 19.5133 5.05144 19.3977 4.82053 19.1666C4.58939 18.9357 4.47383 18.6475 4.47383 18.302V14.025C4.47383 13.6795 4.58939 13.3913 4.82053 13.1604C5.05144 12.9293 5.33953 12.8137 5.68478 12.8137H8.55556L2.77816 7.03663C2.5928 6.85105 2.49789 6.6179 2.49342 6.33719C2.48918 6.05625 2.58409 5.81875 2.77816 5.62469C2.97244 5.4304 3.20782 5.33325 3.48429 5.33325C3.76099 5.33325 3.99637 5.4304 4.19043 5.62469L26.196 27.6302C26.3815 27.8158 26.4764 28.0489 26.4807 28.3297C26.4849 28.6106 26.39 28.8481 26.196 29.0422C26.0019 29.2362 25.7665 29.3333 25.4898 29.3333C25.2134 29.3333 24.9781 29.2362 24.784 29.0422L21.4496 25.7078ZM24.8302 16.13C24.8302 14.2936 24.3368 12.6127 23.35 11.0872C22.3631 9.56171 21.0391 8.42367 19.3778 7.67309C19.1201 7.55116 18.9302 7.36904 18.8083 7.12674C18.6864 6.88466 18.6726 6.639 18.7671 6.38978C18.8754 6.11845 19.0661 5.93041 19.3392 5.82567C19.6124 5.72071 19.889 5.72931 20.169 5.85147C22.1891 6.76864 23.806 8.14541 25.0195 9.98177C26.2333 11.8181 26.8401 13.8675 26.8401 16.13C26.8401 16.9873 26.7409 17.8218 26.5423 18.6333C26.344 19.4451 26.0576 20.216 25.6831 20.946C25.5301 21.3085 25.3166 21.5318 25.0426 21.616C24.7688 21.7002 24.5142 21.6993 24.2789 21.6133C24.0435 21.5275 23.8609 21.3738 23.7312 21.152C23.6014 20.9305 23.6044 20.6815 23.7402 20.405C24.1062 19.7471 24.3794 19.0663 24.5596 18.3626C24.74 17.6592 24.8302 16.915 24.8302 16.13ZM19.3108 11.8372C19.9361 12.3147 20.4111 12.9623 20.7358 13.7801C21.0605 14.5977 21.2228 15.3922 21.2228 16.1635C21.2228 16.3611 21.2121 16.5565 21.1907 16.7497C21.169 16.9429 21.1299 17.134 21.0734 17.3232C21.0116 17.5791 20.8574 17.741 20.6108 17.8089C20.3643 17.8766 20.1422 17.8117 19.9446 17.6143L18.7517 16.4211C18.6262 16.2958 18.5343 16.1602 18.476 16.0141C18.4175 15.868 18.3882 15.7143 18.3882 15.5528V12.3163C18.3882 12.0827 18.4948 11.913 18.7078 11.8074C18.9209 11.7018 19.1218 11.7117 19.3108 11.8372ZM12.7194 10.3891C12.5941 10.2636 12.5336 10.1201 12.5378 9.95866C12.5421 9.7972 12.6069 9.65383 12.7324 9.52854L13.4563 8.80432C13.7777 8.48318 14.1475 8.40971 14.5658 8.5839C14.9841 8.75831 15.1932 9.07398 15.1932 9.53089V11.3964C15.1932 11.6749 15.0699 11.8677 14.8234 11.9749C14.5768 12.0823 14.3547 12.033 14.1571 11.8268L12.7194 10.3891ZM13.1833 20.3843V17.4415L10.5654 14.8236H6.48371V17.5034H10.3025L13.1833 20.3843Z" fill="#F5F5F4"/>
</svg>
