<svg width="24" height="24" viewBox="0 0 24 24" fill="none" xmlns="http://www.w3.org/2000/svg">
<mask id="mask0_2270_6072" style="mask-type:alpha" maskUnits="userSpaceOnUse" x="0" y="0" width="24" height="24">
<rect width="24" height="24" fill="#D9D9D9"/>
</mask>
<g mask="url(#mask0_2270_6072)">
<path d="M14.577 22.423C14.1923 22.423 13.8654 22.2884 13.5962 22.0193C13.3269 21.7499 13.1922 21.423 13.1922 21.0385V14.577C13.1922 14.1923 13.3269 13.8654 13.5962 13.5963C13.8654 13.3269 14.1923 13.1923 14.577 13.1923H21.0385C21.423 13.1923 21.7499 13.3269 22.0192 13.5963C22.2884 13.8654 22.423 14.1923 22.423 14.577V21.0385C22.423 21.423 22.2884 21.7499 22.0192 22.0193C21.7499 22.2884 21.423 22.423 21.0385 22.423H14.577ZM11 17.4057V21.5H10.7385C10.3975 21.5 10.1286 21.3868 9.93174 21.1605C9.73491 20.9343 9.60958 20.6558 9.55574 20.325L9.31149 18.4538C9.04366 18.3641 8.76899 18.2385 8.48749 18.077C8.20616 17.9153 7.95458 17.7422 7.73274 17.5577L5.99999 18.2943C5.68583 18.4328 5.37016 18.4462 5.05299 18.3345C4.73566 18.223 4.48916 18.0205 4.31349 17.727L3.18649 15.773C3.01083 15.4795 2.96024 15.1689 3.03474 14.8413C3.10908 14.5138 3.27958 14.2436 3.54624 14.0308L5.04424 12.9058C5.02124 12.7571 5.00491 12.6077 4.99524 12.4578C4.98558 12.3078 4.98074 12.1583 4.98074 12.0095C4.98074 11.8673 4.98558 11.7228 4.99524 11.576C5.00491 11.4292 5.02124 11.2686 5.04424 11.0943L3.54624 9.96925C3.27958 9.75642 3.11066 9.48458 3.03949 9.15375C2.96833 8.82308 3.02058 8.51092 3.19624 8.21725L4.31349 6.29225C4.48916 6.00508 4.73566 5.80417 5.05299 5.6895C5.37016 5.57467 5.68583 5.5865 5.99999 5.725L7.72299 6.452C7.96416 6.261 8.22158 6.08633 8.49524 5.928C8.76891 5.76967 9.03783 5.64242 9.30199 5.54625L9.55574 3.675C9.60958 3.34417 9.76058 3.06567 10.0087 2.8395C10.2567 2.61317 10.5512 2.5 10.8922 2.5H13.1077C13.4487 2.5 13.7432 2.61317 13.9912 2.8395C14.2394 3.06567 14.3904 3.34417 14.4442 3.675L14.6885 5.55575C14.9885 5.66475 15.2599 5.792 15.5027 5.9375C15.7457 6.083 15.991 6.2545 16.2385 6.452L18.0097 5.725C18.3237 5.5865 18.6394 5.57467 18.9567 5.6895C19.2741 5.80417 19.5205 6.00508 19.696 6.29225L20.8135 8.227C20.9892 8.5205 21.0397 8.83358 20.9652 9.16625C20.8909 9.49892 20.7204 9.76658 20.4537 9.96925L19.546 10.65C19.3705 10.7782 19.1872 10.8336 18.996 10.8163C18.805 10.7989 18.6371 10.7076 18.4922 10.5423C18.3474 10.3769 18.2852 10.193 18.3057 9.9905C18.3262 9.78783 18.4192 9.61725 18.5845 9.47875L19.4345 8.85L18.45 7.15L15.9365 8.2095C15.6018 7.85183 15.2009 7.53583 14.7337 7.2615C14.2664 6.98717 13.7937 6.79292 13.3155 6.67875L13 4H11.0155L10.6845 6.66925C10.1743 6.78975 9.70325 6.97433 9.27125 7.223C8.83908 7.47183 8.42683 7.79233 8.03449 8.1845L5.54999 7.15L4.56549 8.85L6.72499 10.4595C6.64166 10.6968 6.58333 10.9437 6.54999 11.2C6.51666 11.4563 6.49999 11.7262 6.49999 12.0095C6.49999 12.2698 6.51666 12.525 6.54999 12.775C6.58333 13.025 6.63849 13.2718 6.71549 13.5155L4.56549 15.15L5.54999 16.85L8.02499 15.8C8.42499 16.2103 8.87916 16.5497 9.3875 16.8182C9.89583 17.0869 10.4333 17.2827 11 17.4057ZM12.0115 9C11.1795 9 10.4715 9.28942 9.88749 9.86825C9.30349 10.4471 9.01149 11.1577 9.01149 12C9.01149 12.3308 9.06316 12.6501 9.16649 12.9578C9.26966 13.2654 9.42441 13.5533 9.63074 13.8212C9.77558 14.0071 9.95541 14.1205 10.1702 14.1615C10.3849 14.2025 10.5801 14.1506 10.7557 14.0058C10.9314 13.8711 11.0305 13.7015 11.053 13.497C11.0753 13.2927 11.0141 13.1161 10.8692 12.9672C10.7501 12.8339 10.6607 12.6868 10.601 12.526C10.5413 12.365 10.5115 12.1897 10.5115 12C10.5115 11.5833 10.6573 11.2292 10.949 10.9375C11.2407 10.6458 11.5948 10.5 12.0115 10.5C12.191 10.5 12.3663 10.534 12.5375 10.602C12.7087 10.6698 12.8609 10.7634 12.9942 10.8828C13.1429 11.0071 13.3118 11.0564 13.501 11.0307C13.69 11.0051 13.8518 10.9044 13.9865 10.7288C14.1212 10.5533 14.1705 10.3607 14.1345 10.151C14.0987 9.94133 13.9929 9.76408 13.8172 9.61925C13.5967 9.41925 13.3294 9.26608 13.0152 9.15975C12.7012 9.05325 12.3667 9 12.0115 9ZM17.8077 18.7307C17.3911 18.7307 16.9875 18.7898 16.597 18.9078C16.2067 19.0256 15.8429 19.2044 15.5057 19.4443C15.3019 19.5839 15.1474 19.7288 15.0422 19.8788C14.9371 20.0288 14.8845 20.1839 14.8845 20.3443C14.8845 20.4481 14.923 20.5384 15 20.6152C15.0768 20.6922 15.1672 20.7307 15.2712 20.7307H20.4442C20.5211 20.7307 20.5881 20.6939 20.6452 20.6203C20.7022 20.5464 20.7307 20.4544 20.7307 20.3443C20.7307 20.1839 20.6782 20.0288 20.573 19.8788C20.4678 19.7288 20.3133 19.5839 20.1095 19.4443C19.7723 19.2044 19.4086 19.0256 19.0182 18.9078C18.6279 18.7898 18.2244 18.7307 17.8077 18.7307ZM17.8077 17.8077C18.1922 17.8077 18.5192 17.6731 18.7885 17.4038C19.0577 17.1346 19.1922 16.8077 19.1922 16.423C19.1922 16.0385 19.0577 15.7116 18.7885 15.4423C18.5192 15.1731 18.1922 15.0385 17.8077 15.0385C17.4231 15.0385 17.0962 15.1731 16.827 15.4423C16.5577 15.7116 16.423 16.0385 16.423 16.423C16.423 16.8077 16.5577 17.1346 16.827 17.4038C17.0962 17.6731 17.4231 17.8077 17.8077 17.8077Z" fill="#B0B0B0"/>
</g>
</svg>
