<svg width="40" height="40" viewBox="0 0 40 40" fill="none" xmlns="http://www.w3.org/2000/svg">
<rect width="40" height="40" rx="20" fill="#404040"/>
<mask id="mask0_39_2682" style="mask-type:alpha" maskUnits="userSpaceOnUse" x="8" y="8" width="24" height="24">
<rect x="8" y="8" width="24" height="24" fill="#D9D9D9"/>
</mask>
<g mask="url(#mask0_39_2682)">
<path d="M27.3001 29.4578L18.9848 21.0923C18.2886 21.1641 17.6165 21.3289 16.9683 21.5865C16.3203 21.8442 15.7367 22.1789 15.2173 22.5905C14.9572 22.7725 14.6707 22.8677 14.3578 22.876C14.045 22.8844 13.7822 22.7769 13.5693 22.5538C13.3463 22.3308 13.2457 22.0597 13.2673 21.7405C13.2892 21.4212 13.4251 21.1654 13.6751 20.9733C14.1674 20.5744 14.7094 20.2247 15.3011 19.924C15.8927 19.6234 16.5066 19.3987 17.1426 19.25L14.1808 16.2885C13.645 16.5282 13.0991 16.8221 12.5433 17.1703C11.9875 17.5183 11.4635 17.9 10.9713 18.3155C10.7213 18.518 10.4382 18.6224 10.1221 18.6288C9.80607 18.6353 9.54165 18.5269 9.32882 18.3038C9.10582 18.0808 9.00265 17.8139 9.01932 17.503C9.03598 17.192 9.16615 16.9353 9.40982 16.7328C9.89182 16.3046 10.3966 15.9097 10.9241 15.548C11.4517 15.1865 11.9835 14.8795 12.5193 14.627L10.8501 12.9578C10.7116 12.8193 10.6407 12.6452 10.6376 12.4355C10.6344 12.226 10.7052 12.0489 10.8501 11.904C10.9949 11.759 11.1706 11.6865 11.3771 11.6865C11.5834 11.6865 11.7591 11.759 11.9041 11.904L28.3788 28.3788C28.534 28.5339 28.6116 28.7138 28.6116 28.9183C28.6116 29.1228 28.534 29.3026 28.3788 29.4578C28.2238 29.5961 28.0441 29.6694 27.8396 29.6778C27.6351 29.6861 27.4552 29.6128 27.3001 29.4578ZM20.0001 28.7115C19.4347 28.7115 18.9568 28.5138 18.5663 28.1183C18.176 27.7228 17.9808 27.2474 17.9808 26.6923C17.9808 26.1269 18.176 25.6491 18.5663 25.2588C18.9568 24.8684 19.4347 24.6733 20.0001 24.6733C20.5654 24.6733 21.0433 24.8684 21.4338 25.2588C21.8241 25.6491 22.0193 26.1269 22.0193 26.6923C22.0193 27.2474 21.8241 27.7228 21.4338 28.1183C21.0433 28.5138 20.5654 28.7115 20.0001 28.7115ZM26.5558 22.3943C26.3661 22.5839 26.145 22.6763 25.8923 22.6713C25.6398 22.6661 25.4187 22.5686 25.2288 22.3788L23.1176 20.2675C22.9392 20.0892 22.9087 19.9059 23.0261 19.7175C23.1434 19.529 23.3302 19.4764 23.5866 19.5598C24.1122 19.7174 24.6132 19.9229 25.0896 20.176C25.5657 20.4292 26.0154 20.7231 26.4386 21.0578C26.6552 21.2269 26.7764 21.4445 26.8021 21.7105C26.8276 21.9767 26.7455 22.2046 26.5558 22.3943ZM30.6808 18.3038C30.4617 18.5333 30.195 18.6442 29.8808 18.6365C29.5668 18.6289 29.2816 18.5205 29.0251 18.3115C27.8059 17.2642 26.428 16.4504 24.8913 15.8703C23.3548 15.2901 21.7244 15 20.0001 15C19.6501 15 19.3077 15.0125 18.9731 15.0375C18.6386 15.0625 18.3142 15.1 18.0001 15.15C17.6924 15.2039 17.4136 15.1388 17.1636 14.9548C16.9136 14.7708 16.7617 14.5249 16.7078 14.2173C16.654 13.9096 16.7216 13.6308 16.9106 13.3808C17.0997 13.1308 17.3482 12.9789 17.6558 12.925C18.011 12.8712 18.3831 12.8318 18.7721 12.8068C19.1612 12.7818 19.5706 12.7693 20.0001 12.7693C22.0449 12.7693 23.9657 13.1184 25.7626 13.8165C27.5594 14.5145 29.1686 15.4783 30.5903 16.7078C30.8403 16.9206 30.9736 17.184 30.9903 17.498C31.007 17.8122 30.9038 18.0808 30.6808 18.3038Z" fill="#F5F5F4"/>
</g>
</svg>
