<svg width="18" height="19" viewBox="0 0 18 19" fill="none" xmlns="http://www.w3.org/2000/svg">
<path fill-rule="evenodd" clip-rule="evenodd" d="M3 0.5C1.34315 0.5 0 1.84315 0 3.5V15.5C0 17.1569 1.34315 18.5 3 18.5H15C16.6569 18.5 18 17.1569 18 15.5V3.5C18 1.84315 16.6569 0.5 15 0.5H3ZM13.5272 8.03342C13.8218 7.74225 13.8246 7.26738 13.5334 6.97278C13.2422 6.67818 12.7674 6.6754 12.4728 6.96658L8.11808 11.2706C8.02058 11.367 7.86365 11.3669 7.76631 11.2703L5.52811 9.05079C5.23399 8.75912 4.75912 8.76111 4.46746 9.05523C4.17579 9.34934 4.17778 9.82421 4.47189 10.1159L6.71009 12.3354C7.3915 13.0112 8.48999 13.0121 9.17252 12.3375L13.5272 8.03342Z" fill="#FF3D00"/>
</svg>
