<svg width="20" height="21" viewBox="0 0 20 21" fill="none" xmlns="http://www.w3.org/2000/svg">
<path d="M12.5353 16.2042C11.9305 16.2042 11.4171 15.9933 10.9953 15.5714C10.5734 15.1494 10.3625 14.636 10.3625 14.0311C10.3625 13.4262 10.5734 12.9129 10.9953 12.491C11.4171 12.0692 11.9305 11.8582 12.5353 11.8582C13.1402 11.8582 13.6536 12.0692 14.0757 12.491C14.4975 12.9129 14.7085 13.4262 14.7085 14.0311C14.7085 14.636 14.4975 15.1494 14.0757 15.5714C13.6536 15.9933 13.1402 16.2042 12.5353 16.2042ZM3.69837 19.5C3.22268 19.5 2.82004 19.3352 2.49046 19.0056C2.16088 18.6761 1.99609 18.2734 1.99609 17.7977V5.19412C1.99609 4.71842 2.16088 4.31579 2.49046 3.98621C2.82004 3.65663 3.22268 3.49184 3.69837 3.49184H5.0021V2.22413C5.0021 2.01775 5.07123 1.84543 5.2095 1.70716C5.34776 1.56905 5.52009 1.5 5.72647 1.5C5.933 1.5 6.10533 1.56905 6.24344 1.70716C6.3817 1.84543 6.45084 2.01775 6.45084 2.22413V3.49184H13.5858V2.20624C13.5858 2.00583 13.6533 1.83798 13.7885 1.70269C13.9237 1.56756 14.0916 1.5 14.292 1.5C14.4924 1.5 14.6602 1.56756 14.7953 1.70269C14.9306 1.83798 14.9983 2.00583 14.9983 2.20624V3.49184H16.302C16.7777 3.49184 17.1803 3.65663 17.5099 3.98621C17.8395 4.31579 18.0043 4.71842 18.0043 5.19412V17.7977C18.0043 18.2734 17.8395 18.6761 17.5099 19.0056C17.1803 19.3352 16.7777 19.5 16.302 19.5H3.69837ZM3.69837 18.0875H16.302C16.3745 18.0875 16.4409 18.0573 16.5011 17.9969C16.5616 17.9366 16.5918 17.8702 16.5918 17.7977V8.96074H3.40858V17.7977C3.40858 17.8702 3.43879 17.9366 3.49921 17.9969C3.55948 18.0573 3.62587 18.0875 3.69837 18.0875ZM3.40858 7.54826H16.5918V5.19412C16.5918 5.12161 16.5616 5.05522 16.5011 4.99496C16.4409 4.93453 16.3745 4.90432 16.302 4.90432H3.69837C3.62587 4.90432 3.55948 4.93453 3.49921 4.99496C3.43879 5.05522 3.40858 5.12161 3.40858 5.19412V7.54826Z" fill="#F5F5F4"/>
</svg>
