<svg width="16" height="16" viewBox="0 0 16 16" fill="none" xmlns="http://www.w3.org/2000/svg">
<mask id="mask0_5624_10402" style="mask-type:alpha" maskUnits="userSpaceOnUse" x="0" y="0" width="16" height="16">
<rect x="0.285156" y="0.142822" width="15.7143" height="15.7143" fill="#D9D9D9"/>
</mask>
<g mask="url(#mask0_5624_10402)">
<path d="M9.15758 8.31102L11.2528 6.90329C11.4493 6.77233 11.5475 6.59227 11.5475 6.36311C11.5475 6.13394 11.4493 5.95388 11.2528 5.82293L9.15758 4.41519C8.93933 4.26241 8.71562 4.2515 8.48645 4.38245C8.25729 4.5134 8.1427 4.70983 8.1427 4.97174V7.75448C8.1427 8.01638 8.25729 8.21281 8.48645 8.34376C8.71562 8.47471 8.93933 8.4638 9.15758 8.31102ZM4.0177 14.4658C3.65758 14.5204 3.33293 14.4358 3.04374 14.2121C2.75456 13.9884 2.58814 13.6964 2.54449 13.3363L1.67693 6.18305C1.63328 5.82293 1.72058 5.501 1.93883 5.21727C2.15709 4.93354 2.44627 4.76985 2.80639 4.7262L3.55937 4.62799V9.9643C3.55937 10.6845 3.81582 11.3011 4.32871 11.814C4.84161 12.3269 5.45818 12.5833 6.17842 12.5833H12.2677C12.2022 12.8453 12.0713 13.0717 11.8748 13.2627C11.6784 13.4536 11.4383 13.5655 11.1546 13.5982L4.0177 14.4658ZM6.17842 11.2738C5.8183 11.2738 5.51001 11.1456 5.25357 10.8891C4.99712 10.6327 4.86889 10.3244 4.86889 9.9643V2.76192C4.86889 2.4018 4.99712 2.09351 5.25357 1.83707C5.51001 1.58062 5.8183 1.45239 6.17842 1.45239H13.3808C13.7409 1.45239 14.0492 1.58062 14.3056 1.83707C14.5621 2.09351 14.6903 2.4018 14.6903 2.76192V9.9643C14.6903 10.3244 14.5621 10.6327 14.3056 10.8891C14.0492 11.1456 13.7409 11.2738 13.3808 11.2738H6.17842Z" fill="white" fill-opacity="0.87"/>
</g>
</svg>
