<svg width="16" height="18" viewBox="0 0 16 18" fill="none" xmlns="http://www.w3.org/2000/svg">
<path d="M2.33075 18C1.89775 18 1.53125 17.85 1.23125 17.55C0.93125 17.25 0.78125 16.8835 0.78125 16.4505V1.5495C0.78125 1.1165 0.93125 0.75 1.23125 0.45C1.53125 0.15 1.89775 0 2.33075 0H7.45711C7.63954 0 7.79225 0.0615713 7.91525 0.184714C8.03839 0.307714 8.09996 0.460429 8.09996 0.642857C8.09996 0.825286 8.03839 0.978 7.91525 1.101C7.79225 1.22414 7.63954 1.28571 7.45711 1.28571H2.33075C2.26475 1.28571 2.20432 1.31321 2.14946 1.36821C2.09446 1.42307 2.06696 1.4835 2.06696 1.5495V2.35714H7.45711C7.63954 2.35714 7.79225 2.41871 7.91525 2.54186C8.03839 2.66486 8.09996 2.81757 8.09996 3C8.09996 3.18243 8.03839 3.33514 7.91525 3.45814C7.79225 3.58129 7.63954 3.64286 7.45711 3.64286H2.06696V14.3571H10.6384V13.2857C10.6384 13.1033 10.7 12.9506 10.8231 12.8276C10.9461 12.7044 11.0988 12.6429 11.2813 12.6429C11.4637 12.6429 11.6164 12.7044 11.7394 12.8276C11.8625 12.9506 11.9241 13.1033 11.9241 13.2857V16.4505C11.9241 16.8835 11.7741 17.25 11.4741 17.55C11.1741 17.85 10.8076 18 10.3746 18H2.33075ZM2.06696 15.6429V16.4505C2.06696 16.5165 2.09446 16.5769 2.14946 16.6318C2.20432 16.6868 2.26475 16.7143 2.33075 16.7143H10.3746C10.4406 16.7143 10.501 16.6868 10.5559 16.6318C10.6109 16.5769 10.6384 16.5165 10.6384 16.4505V15.6429H2.06696ZM10.8527 7.95986V2.14286C10.8527 1.96043 10.9143 1.80771 11.0374 1.68471C11.1604 1.56157 11.3131 1.5 11.4955 1.5C11.678 1.5 11.8307 1.56157 11.9537 1.68471C12.0768 1.80771 12.1384 1.96043 12.1384 2.14286V7.95986L14.1295 5.96871C14.2483 5.85 14.3975 5.78929 14.5772 5.78657C14.7568 5.78386 14.9087 5.84457 15.033 5.96871C15.1571 6.09286 15.2192 6.24343 15.2192 6.42043C15.2192 6.59729 15.1571 6.74779 15.033 6.87193L12.0379 9.867C11.8829 10.022 11.7021 10.0995 11.4955 10.0995C11.289 10.0995 11.1082 10.022 10.9532 9.867L7.95811 6.87193C7.83954 6.75321 7.77882 6.60407 7.77597 6.4245C7.77325 6.24479 7.83396 6.09286 7.95811 5.96871C8.08239 5.84457 8.23297 5.7825 8.40982 5.7825C8.58668 5.7825 8.73725 5.84457 8.86154 5.96871L10.8527 7.95986Z" fill="currentColor"/>
</svg>
