<svg width="210" height="49" viewBox="0 0 210 49" fill="none" xmlns="http://www.w3.org/2000/svg">
<path d="M24.3202 0C22.5522 0 18.9732 0.130319 17.2052 0.347518C7.15807 1.56383 1.59547 4.25709 0.344967 17.4193C0.344967 17.4193 0 21.5895 0 25.4557C0 28.9309 0.344967 31.6241 0.344967 31.6241C1.55235 44.7863 7.11495 47.4796 17.2052 48.6959C18.9301 48.9131 22.5522 49 24.3202 49C26.0881 49 29.7103 48.8697 31.4351 48.6959C41.4823 47.4796 47.0449 44.7429 48.2954 31.6241C48.2954 31.6241 48.6404 29.3652 48.6404 24.8475C48.6404 19.7651 48.2954 17.3759 48.2954 17.3759C47.088 4.25709 41.5254 1.56383 31.4782 0.347518C29.7103 0.130319 26.1313 0 24.3202 0Z" fill="#FF6500"/>
<path d="M35.2731 22.3252L18.499 12.5512C16.7742 11.5521 14.6182 12.8119 14.6182 14.8101V34.4014C14.6182 36.3996 16.7742 37.6594 18.499 36.6603L35.2731 26.8429C36.9979 25.8438 36.9979 23.3243 35.2731 22.3252Z" fill="white"/>
<path d="M58.3428 9.81641H76.8848V15.0726H63.8622V22.1967H75.548V27.4529H63.8622V39.1817H58.3859L58.3428 9.81641Z" fill="#FF6500"/>
<path d="M81.1534 39.2687V9.81654H91.4593C92.8392 9.81654 94.1328 10.0337 95.3833 10.5116C96.5907 10.946 97.6688 11.5976 98.5312 12.4229C99.4367 13.2483 100.127 14.2474 100.644 15.3768C101.162 16.5063 101.42 17.766 101.42 19.1561C101.42 20.5461 101.162 21.8059 100.644 22.9788C100.127 24.1082 99.4367 25.1073 98.5312 25.9327C97.6256 26.758 96.5907 27.4096 95.3833 27.844C94.176 28.2784 92.8823 28.5391 91.4593 28.5391H86.6729V39.3556L81.1534 39.2687C81.1534 39.3121 81.1534 39.3121 81.1534 39.2687ZM91.5456 23.196C92.9686 23.196 94.0897 22.805 94.8228 21.9797C95.5558 21.1543 95.9439 20.1986 95.9439 19.1561C95.9439 18.6348 95.8577 18.1135 95.6852 17.6357C95.5127 17.1578 95.254 16.7235 94.8659 16.3325C94.4778 15.9415 94.0466 15.6809 93.486 15.4637C92.9255 15.2465 92.2786 15.1162 91.5456 15.1162H86.6729V23.196H91.5456Z" fill="#FF6500"/>
<path d="M111.551 39.2685V15.1161H103.401V9.81641H125.221V15.0726H117.071V39.2685H111.551C111.551 39.312 111.551 39.312 111.551 39.2685Z" fill="#FF6500"/>
<path d="M134.968 39.2685V9.81641H145.274C146.654 9.81641 147.947 10.0336 149.198 10.5114C150.405 10.9458 151.483 11.5974 152.346 12.4228C153.251 13.2481 153.941 14.2473 154.458 15.3767C154.976 16.5061 155.235 17.7659 155.235 19.1559C155.235 20.546 154.976 21.8058 154.458 22.9786C153.941 24.1081 153.251 25.1072 152.346 25.9325C151.44 26.7579 150.405 27.4095 149.198 27.8439C147.99 28.2783 146.697 28.5389 145.274 28.5389H140.487V39.3554L134.968 39.2685C134.968 39.312 134.968 39.312 134.968 39.2685ZM145.317 23.1958C146.74 23.1958 147.861 22.8049 148.594 21.9795C149.327 21.1542 149.715 20.1985 149.715 19.1559C149.715 18.6347 149.629 18.1134 149.456 17.6356C149.284 17.1577 149.025 16.7233 148.637 16.3324C148.249 15.9414 147.818 15.6808 147.257 15.4636C146.697 15.2464 146.05 15.1161 145.317 15.1161H140.487V23.1958H145.317Z" fill="#FF6500"/>
<path d="M158.641 39.2687V9.81654H164.118V39.2687H158.641C158.641 39.3121 158.641 39.3121 158.641 39.2687Z" fill="#FF6500"/>
<path d="M180.762 37.1927H180.417C179.771 37.9747 179.038 38.6263 178.132 39.1475C177.227 39.7123 176.105 39.9729 174.726 39.9729C173.691 39.9729 172.699 39.7991 171.793 39.4516C170.888 39.1041 170.068 38.6263 169.422 38.0181C168.732 37.4099 168.214 36.6715 167.826 35.8461C167.438 34.9773 167.266 34.0651 167.266 33.066C167.266 32.0234 167.481 31.0677 167.869 30.2424C168.257 29.417 168.861 28.6786 169.594 28.0704C170.327 27.4623 171.19 27.0279 172.181 26.6803C173.173 26.3763 174.251 26.2025 175.415 26.2025C176.709 26.2025 177.787 26.2894 178.65 26.5066C179.512 26.7238 180.202 26.941 180.719 27.1582V26.55C180.719 25.464 180.288 24.5952 179.469 23.9002C178.606 23.2052 177.572 22.8576 176.321 22.8576C174.467 22.8576 172.914 23.6396 171.621 25.2034L167.74 22.5536C169.853 19.8603 172.785 18.5137 176.45 18.5137C179.555 18.5137 181.927 19.2521 183.565 20.7291C185.204 22.206 186.023 24.378 186.023 27.2451V39.3213H180.762V37.1927ZM180.762 31.1112C180.116 30.8071 179.469 30.5465 178.822 30.3727C178.175 30.199 177.442 30.1121 176.623 30.1121C175.329 30.1121 174.337 30.3727 173.648 30.9374C173.001 31.4587 172.656 32.1103 172.613 32.8922C172.569 33.8479 173.13 34.7601 173.949 35.238C174.51 35.5855 175.2 35.7592 175.89 35.7592C176.58 35.7592 177.27 35.6289 177.873 35.3683C178.477 35.1076 178.995 34.7601 179.426 34.3257C179.857 33.8913 180.159 33.4135 180.417 32.8488C180.676 32.3275 180.762 31.7193 180.762 31.1112Z" fill="#FF6500"/>
<path d="M196.202 38.3015L187.793 19.1445H193.873L198.918 31.3511H199.22L204.093 19.1445H210L197.495 48.1623H191.76L196.202 38.3015Z" fill="#FF6500"/>
</svg>
