
<svg width="32" height="32" viewBox="0 0 32 32" fill="none" xmlns="http://www.w3.org/2000/svg">
<mask id="mask0_1086_13210" style="mask-type:alpha" maskUnits="userSpaceOnUse" x="0" y="0" width="32" height="32">
<rect width="32" height="32" fill="currentColor"/>
</mask>
<g mask="url(#mask0_1086_13210)">
<path d="M5.87305 24.6667V6V11.7743V11.077V24.6667ZM9.87305 16.3333H14.9064C15.1897 16.3333 15.4273 16.2374 15.619 16.0457C15.8106 15.8539 15.9064 15.6163 15.9064 15.333C15.9064 15.0494 15.8106 14.812 15.619 14.6207C15.4273 14.4291 15.1897 14.3333 14.9064 14.3333H9.87305C9.58971 14.3333 9.35227 14.4292 9.16071 14.621C8.96894 14.8128 8.87305 15.0503 8.87305 15.3337C8.87305 15.6172 8.96894 15.8547 9.16071 16.046C9.35227 16.2376 9.58971 16.3333 9.87305 16.3333ZM9.87305 21.6667H14.9064C15.1897 21.6667 15.4273 21.5708 15.619 21.379C15.8106 21.1872 15.9064 20.9497 15.9064 20.6663C15.9064 20.3828 15.8106 20.1453 15.619 19.954C15.4273 19.7624 15.1897 19.6667 14.9064 19.6667H9.87305C9.58971 19.6667 9.35227 19.7626 9.16071 19.9543C8.96894 20.1461 8.87305 20.3837 8.87305 20.667C8.87305 20.9506 8.96894 21.188 9.16071 21.3793C9.35227 21.5709 9.58971 21.6667 9.87305 21.6667ZM9.87305 11H20.5397C20.8231 11 21.0605 10.9041 21.2521 10.7123C21.4438 10.5206 21.5397 10.283 21.5397 9.99967C21.5397 9.71611 21.4438 9.47867 21.2521 9.28733C21.0605 9.09578 20.8231 9 20.5397 9H9.87305C9.58971 9 9.35227 9.09589 9.16071 9.28767C8.96894 9.47944 8.87305 9.717 8.87305 10.0003C8.87305 10.2839 8.96894 10.5213 9.16071 10.7127C9.35227 10.9042 9.58971 11 9.87305 11ZM6.28338 26.6667C5.60982 26.6667 5.03971 26.4333 4.57305 25.9667C4.10638 25.5 3.87305 24.9299 3.87305 24.2563V6.41033C3.87305 5.73678 4.10638 5.16667 4.57305 4.7C5.03971 4.23333 5.60982 4 6.28338 4H24.1294C24.8029 4 25.3731 4.23333 25.8397 4.7C26.3064 5.16667 26.5397 5.73678 26.5397 6.41033V11.7027C26.5397 11.986 26.4438 12.2234 26.2521 12.415C26.0603 12.6068 25.8227 12.7027 25.5394 12.7027C25.2558 12.7027 25.0184 12.6068 24.8271 12.415C24.6355 12.2234 24.5397 11.986 24.5397 11.7027V6.41033C24.5397 6.30767 24.4969 6.21367 24.4114 6.12833C24.3261 6.04278 24.2321 6 24.1294 6H6.28338C6.18071 6 6.08671 6.04278 6.00138 6.12833C5.91583 6.21367 5.87305 6.30767 5.87305 6.41033V24.2563C5.87305 24.359 5.91583 24.453 6.00138 24.5383C6.08671 24.6239 6.18071 24.6667 6.28338 24.6667H11.5397C11.823 24.6667 12.0606 24.7626 12.2524 24.9543C12.4439 25.1461 12.5397 25.3837 12.5397 25.667C12.5397 25.9506 12.4439 26.188 12.2524 26.3793C12.0606 26.5709 11.823 26.6667 11.5397 26.6667H6.28338ZM21.7961 20C20.9654 20 20.2577 19.7077 19.6731 19.123C19.0884 18.5383 18.7961 17.8307 18.7961 17C18.7961 16.1691 19.0884 15.4614 19.6731 14.877C20.2577 14.2923 20.9654 14 21.7961 14C22.6269 14 23.3346 14.2923 23.9191 14.877C24.5037 15.4614 24.7961 16.1691 24.7961 17C24.7961 17.8307 24.5037 18.5383 23.9191 19.123C23.3346 19.7077 22.6269 20 21.7961 20ZM21.7961 22C22.6369 22 23.4724 22.0812 24.3024 22.2437C25.1324 22.4061 25.9432 22.6497 26.7347 22.9743C27.1803 23.1481 27.524 23.433 27.7661 23.829C28.0083 24.225 28.1294 24.6598 28.1294 25.1333V25.4613C28.1294 25.8029 28.0139 26.0891 27.7831 26.32C27.5519 26.5511 27.2657 26.6667 26.9244 26.6667H16.668C16.3265 26.6667 16.0403 26.5511 15.8094 26.32C15.5783 26.0891 15.4627 25.8029 15.4627 25.4613V25.1333C15.4627 24.6598 15.5838 24.225 15.826 23.829C16.0683 23.433 16.4122 23.1481 16.8577 22.9743C17.6333 22.6497 18.4357 22.4061 19.2651 22.2437C20.0944 22.0812 20.9381 22 21.7961 22Z" fill="currentColor"/>
</g>
</svg>
