<svg width="139" height="20" viewBox="0 0 139 20" fill="none" xmlns="http://www.w3.org/2000/svg">
<rect width="139" height="20" fill="url(#paint0_linear_434_13626)"/>
<path d="M55.0098 5.04688L57.4023 8.86133L59.7949 5.04688H61.333L58.1885 9.97559L61.4082 15H59.8564L57.4023 11.1104L54.9482 15H53.3965L56.6162 9.97559L53.4717 5.04688H55.0098ZM65.9128 15.1367C65.3978 15.1367 64.9307 15.0501 64.5114 14.877C64.0967 14.6992 63.739 14.4508 63.4382 14.1318C63.142 13.8128 62.9141 13.4346 62.7546 12.9971C62.5951 12.5596 62.5154 12.0811 62.5154 11.5615V11.2744C62.5154 10.6729 62.6042 10.1374 62.782 9.66797C62.9597 9.19401 63.2012 8.79297 63.5066 8.46484C63.8119 8.13672 64.1583 7.88835 64.5456 7.71973C64.933 7.55111 65.334 7.4668 65.7487 7.4668C66.2774 7.4668 66.7331 7.55794 67.1159 7.74023C67.5033 7.92253 67.82 8.17773 68.0661 8.50586C68.3122 8.82943 68.4945 9.21224 68.613 9.6543C68.7315 10.0918 68.7907 10.5703 68.7907 11.0898V11.6572H63.2673V10.625H67.5261V10.5293C67.5079 10.2012 67.4395 9.88216 67.321 9.57227C67.2071 9.26237 67.0248 9.00716 66.7741 8.80664C66.5235 8.60612 66.1817 8.50586 65.7487 8.50586C65.4616 8.50586 65.1973 8.56738 64.9558 8.69043C64.7142 8.80892 64.5069 8.98665 64.3337 9.22363C64.1605 9.46061 64.0261 9.75 63.9304 10.0918C63.8347 10.4336 63.7868 10.8278 63.7868 11.2744V11.5615C63.7868 11.9124 63.8347 12.2428 63.9304 12.5527C64.0307 12.8581 64.1742 13.127 64.3611 13.3594C64.5525 13.5918 64.7826 13.7741 65.0515 13.9062C65.3249 14.0384 65.6348 14.1045 65.9812 14.1045C66.4278 14.1045 66.806 14.0133 67.1159 13.8311C67.4258 13.6488 67.697 13.4049 67.9294 13.0996L68.695 13.708C68.5355 13.9495 68.3327 14.1797 68.0866 14.3984C67.8405 14.6172 67.5375 14.7949 67.1775 14.9316C66.822 15.0684 66.4004 15.1367 65.9128 15.1367ZM71.8051 9.07324V15H70.5336V7.60352H71.7368L71.8051 9.07324ZM71.5454 11.0215L70.9575 11.001C70.962 10.4951 71.0281 10.028 71.1557 9.59961C71.2833 9.16667 71.4724 8.79069 71.7231 8.47168C71.9737 8.15267 72.2859 7.90658 72.6596 7.7334C73.0333 7.55566 73.4662 7.4668 73.9584 7.4668C74.3048 7.4668 74.6238 7.51693 74.9155 7.61719C75.2071 7.71289 75.4601 7.86556 75.6743 8.0752C75.8884 8.28483 76.0548 8.55371 76.1733 8.88184C76.2918 9.20996 76.351 9.60645 76.351 10.0713V15H75.0864V10.1328C75.0864 9.74544 75.0203 9.43555 74.8881 9.20312C74.7605 8.9707 74.5782 8.80208 74.3412 8.69727C74.1043 8.58789 73.8263 8.5332 73.5073 8.5332C73.1336 8.5332 72.8214 8.59928 72.5707 8.73145C72.3201 8.86361 72.1196 9.0459 71.9692 9.27832C71.8188 9.51074 71.7094 9.77734 71.6411 10.0781C71.5773 10.3743 71.5454 10.6888 71.5454 11.0215ZM76.3373 10.3242L75.4897 10.584C75.4942 10.1784 75.5603 9.78874 75.6879 9.41504C75.8201 9.04134 76.0092 8.70866 76.2553 8.41699C76.506 8.12533 76.8136 7.89518 77.1782 7.72656C77.5427 7.55339 77.9597 7.4668 78.4291 7.4668C78.8256 7.4668 79.1765 7.51921 79.4819 7.62402C79.7918 7.72884 80.0515 7.89062 80.2612 8.10938C80.4754 8.32357 80.6371 8.59928 80.7465 8.93652C80.8559 9.27376 80.9106 9.6748 80.9106 10.1396V15H79.6391V10.126C79.6391 9.71126 79.573 9.38997 79.4409 9.16211C79.3133 8.92969 79.131 8.7679 78.894 8.67676C78.6616 8.58105 78.3836 8.5332 78.06 8.5332C77.782 8.5332 77.5359 8.58105 77.3217 8.67676C77.1075 8.77246 76.9275 8.90462 76.7817 9.07324C76.6358 9.2373 76.5242 9.42643 76.4467 9.64062C76.3738 9.85482 76.3373 10.0827 76.3373 10.3242ZM89.954 7.60352V8.57422H85.955V7.60352H89.954ZM87.3085 5.80566H88.5731V13.168C88.5731 13.4186 88.6119 13.6077 88.6893 13.7354C88.7668 13.863 88.8671 13.9473 88.9901 13.9883C89.1132 14.0293 89.2453 14.0498 89.3866 14.0498C89.4914 14.0498 89.6008 14.0407 89.7147 14.0225C89.8332 13.9997 89.9221 13.9814 89.9813 13.9678L89.9882 15C89.8879 15.0319 89.7557 15.0615 89.5917 15.0889C89.4322 15.1208 89.2385 15.1367 89.0106 15.1367C88.7007 15.1367 88.4159 15.0752 88.1561 14.9521C87.8964 14.8291 87.689 14.624 87.5341 14.3369C87.3837 14.0452 87.3085 13.6533 87.3085 13.1611V5.80566ZM92.982 4.5V15H91.7174V4.5H92.982ZM92.6813 11.0215L92.1549 11.001C92.1594 10.4951 92.2346 10.028 92.3805 9.59961C92.5263 9.16667 92.7314 8.79069 92.9957 8.47168C93.26 8.15267 93.5745 7.90658 93.9391 7.7334C94.3082 7.55566 94.7161 7.4668 95.1627 7.4668C95.5273 7.4668 95.8554 7.51693 96.1471 7.61719C96.4387 7.71289 96.6871 7.86784 96.8922 8.08203C97.1018 8.29622 97.2613 8.57422 97.3707 8.91602C97.4801 9.25326 97.5348 9.66569 97.5348 10.1533V15H96.2633V10.1396C96.2633 9.75228 96.2063 9.44238 96.0924 9.20996C95.9785 8.97298 95.8121 8.80208 95.5934 8.69727C95.3746 8.58789 95.1057 8.5332 94.7867 8.5332C94.4723 8.5332 94.1852 8.59928 93.9254 8.73145C93.6702 8.86361 93.4492 9.0459 93.2623 9.27832C93.08 9.51074 92.9365 9.77734 92.8316 10.0781C92.7314 10.3743 92.6813 10.6888 92.6813 11.0215ZM102.778 15.1367C102.263 15.1367 101.796 15.0501 101.376 14.877C100.962 14.6992 100.604 14.4508 100.303 14.1318C100.007 13.8128 99.779 13.4346 99.6195 12.9971C99.4599 12.5596 99.3802 12.0811 99.3802 11.5615V11.2744C99.3802 10.6729 99.4691 10.1374 99.6468 9.66797C99.8245 9.19401 100.066 8.79297 100.371 8.46484C100.677 8.13672 101.023 7.88835 101.41 7.71973C101.798 7.55111 102.199 7.4668 102.614 7.4668C103.142 7.4668 103.598 7.55794 103.981 7.74023C104.368 7.92253 104.685 8.17773 104.931 8.50586C105.177 8.82943 105.359 9.21224 105.478 9.6543C105.596 10.0918 105.656 10.5703 105.656 11.0898V11.6572H100.132V10.625H104.391V10.5293C104.373 10.2012 104.304 9.88216 104.186 9.57227C104.072 9.26237 103.89 9.00716 103.639 8.80664C103.388 8.60612 103.047 8.50586 102.614 8.50586C102.326 8.50586 102.062 8.56738 101.821 8.69043C101.579 8.80892 101.372 8.98665 101.199 9.22363C101.025 9.46061 100.891 9.75 100.795 10.0918C100.7 10.4336 100.652 10.8278 100.652 11.2744V11.5615C100.652 11.9124 100.7 12.2428 100.795 12.5527C100.895 12.8581 101.039 13.127 101.226 13.3594C101.417 13.5918 101.647 13.7741 101.916 13.9062C102.19 14.0384 102.5 14.1045 102.846 14.1045C103.293 14.1045 103.671 14.0133 103.981 13.8311C104.291 13.6488 104.562 13.4049 104.794 13.0996L105.56 13.708C105.4 13.9495 105.198 14.1797 104.951 14.3984C104.705 14.6172 104.402 14.7949 104.042 14.9316C103.687 15.0684 103.265 15.1367 102.778 15.1367ZM102.99 4.5L104.685 6.36621V6.43457H103.632L102.607 5.2793L101.588 6.43457H100.549V6.35938L102.224 4.5H102.99ZM108.67 9.07324V15H107.398V7.60352H108.602L108.67 9.07324ZM108.41 11.0215L107.822 11.001C107.827 10.4951 107.893 10.028 108.021 9.59961C108.148 9.16667 108.337 8.79069 108.588 8.47168C108.839 8.15267 109.151 7.90658 109.524 7.7334C109.898 7.55566 110.331 7.4668 110.823 7.4668C111.17 7.4668 111.489 7.51693 111.78 7.61719C112.072 7.71289 112.325 7.86556 112.539 8.0752C112.753 8.28483 112.92 8.55371 113.038 8.88184C113.157 9.20996 113.216 9.60645 113.216 10.0713V15H111.951V10.1328C111.951 9.74544 111.885 9.43555 111.753 9.20312C111.625 8.9707 111.443 8.80208 111.206 8.69727C110.969 8.58789 110.691 8.5332 110.372 8.5332C109.998 8.5332 109.686 8.59928 109.436 8.73145C109.185 8.86361 108.984 9.0459 108.834 9.27832C108.684 9.51074 108.574 9.77734 108.506 10.0781C108.442 10.3743 108.41 10.6888 108.41 11.0215ZM113.202 10.3242L112.355 10.584C112.359 10.1784 112.425 9.78874 112.553 9.41504C112.685 9.04134 112.874 8.70866 113.12 8.41699C113.371 8.12533 113.678 7.89518 114.043 7.72656C114.408 7.55339 114.825 7.4668 115.294 7.4668C115.69 7.4668 116.041 7.51921 116.347 7.62402C116.657 7.72884 116.916 7.89062 117.126 8.10938C117.34 8.32357 117.502 8.59928 117.611 8.93652C117.721 9.27376 117.775 9.6748 117.775 10.1396V15H116.504V10.126C116.504 9.71126 116.438 9.38997 116.306 9.16211C116.178 8.92969 115.996 8.7679 115.759 8.67676C115.526 8.58105 115.248 8.5332 114.925 8.5332C114.647 8.5332 114.401 8.58105 114.187 8.67676C113.972 8.77246 113.792 8.90462 113.647 9.07324C113.501 9.2373 113.389 9.42643 113.312 9.64062C113.239 9.85482 113.202 10.0827 113.202 10.3242Z" fill="#FF6500"/>
<path d="M130.199 10.0022L126.387 6.18988C126.257 6.06025 126.191 5.8973 126.188 5.70106C126.185 5.50497 126.251 5.33906 126.387 5.20334C126.523 5.06778 126.687 5 126.88 5C127.073 5 127.238 5.06778 127.373 5.20334L131.58 9.40993C131.668 9.4976 131.729 9.59003 131.765 9.68721C131.801 9.7844 131.819 9.88939 131.819 10.0022C131.819 10.115 131.801 10.2199 131.765 10.3171C131.729 10.4143 131.668 10.5068 131.58 10.5944L127.373 14.801C127.244 14.9305 127.081 14.9968 126.885 14.9999C126.689 15.0029 126.523 14.9366 126.387 14.801C126.251 14.6653 126.184 14.5009 126.184 14.3077C126.184 14.1146 126.251 13.9502 126.387 13.8145L130.199 10.0022Z" fill="#FF6500"/>
<defs>
<linearGradient id="paint0_linear_434_13626" x1="0" y1="10" x2="139" y2="10" gradientUnits="userSpaceOnUse">
<stop stop-color="#1B1A19" stop-opacity="0"/>
<stop offset="0.2" stop-color="#1B1A19" stop-opacity="0.8"/>
<stop offset="0.5" stop-color="#1B1A19"/>
</linearGradient>
</defs>
</svg>
