<svg width="48" height="49" viewBox="0 0 48 49" fill="none" xmlns="http://www.w3.org/2000/svg">
<rect y="0.5" width="48" height="48" rx="8" fill="url(#paint0_linear_1598_242)"/>
<path fill-rule="evenodd" clip-rule="evenodd" d="M12.4974 17.8255C11.9991 16.9564 11.868 15.9317 12.1368 14.9654C12.4122 14.0056 13.0613 13.1884 13.9464 12.715C14.1169 12.6242 14.2808 12.5334 14.4447 12.4426C16.1626 11.5087 18.3197 12.0989 19.3098 13.7786C21.2374 17.0407 24.0437 21.788 24.0437 21.788C24.0437 21.788 26.8499 17.0342 28.7776 13.7721C29.2497 12.9744 30.0168 12.3972 30.9216 12.1637C31.8264 11.9302 32.7837 12.06 33.5902 12.5269C33.7869 12.6372 33.977 12.7539 34.1737 12.8641C35.9178 13.8759 36.5144 16.0874 35.5178 17.8255C33.4197 21.4832 29.9053 27.6119 27.3286 32.1128C26.6598 33.2736 25.4206 33.9935 24.0699 34C22.7192 34 21.4735 33.2931 20.7981 32.1322C18.1951 27.6508 14.6545 21.5416 12.4974 17.8255Z" fill="white"/>
<path fill-rule="evenodd" clip-rule="evenodd" d="M19.1003 13.4094C19.1003 13.4094 18.2217 12.5273 16.6219 12.5273C15.022 12.5273 13.4222 14.3627 14.5696 16.3407C15.7236 18.3188 17.4611 21.2502 17.9594 21.996C18.4512 22.7418 19.3232 23.6044 21.0214 23.6044C22.7196 23.6044 24.0506 21.795 24.0506 21.795L19.1003 13.4094Z" fill="#FFD1D2"/>
<defs>
<linearGradient id="paint0_linear_1598_242" x1="0.72" y1="0.5" x2="56.6339" y2="34.1562" gradientUnits="userSpaceOnUse">
<stop stop-color="#FF003D"/>
<stop offset="1" stop-color="#AE0000"/>
</linearGradient>
</defs>
</svg>
