<svg width="48" height="49" viewBox="0 0 48 49" fill="none" xmlns="http://www.w3.org/2000/svg">
<rect y="0.5" width="48" height="48" rx="8" fill="url(#paint0_linear_1491_1281)"/>
<path d="M15.0857 29.7857C15.0857 29.2334 14.638 28.7857 14.0857 28.7857H13C12.4477 28.7857 12 29.2334 12 29.7857V35.5C12 36.0523 12.4477 36.5 13 36.5H18.7143C19.2666 36.5 19.7143 36.0523 19.7143 35.5V34.4143C19.7143 33.862 19.2666 33.4143 18.7143 33.4143H16.0857C15.5334 33.4143 15.0857 32.9666 15.0857 32.4143V29.7857ZM12 19.2143C12 19.7666 12.4477 20.2143 13 20.2143H14.0857C14.638 20.2143 15.0857 19.7666 15.0857 19.2143V16.5857C15.0857 16.0334 15.5334 15.5857 16.0857 15.5857H18.7143C19.2666 15.5857 19.7143 15.138 19.7143 14.5857V13.5C19.7143 12.9477 19.2666 12.5 18.7143 12.5H13C12.4477 12.5 12 12.9477 12 13.5V19.2143ZM32.9143 32.4143C32.9143 32.9666 32.4666 33.4143 31.9143 33.4143H29.2857C28.7334 33.4143 28.2857 33.862 28.2857 34.4143V35.5C28.2857 36.0523 28.7334 36.5 29.2857 36.5H35C35.5523 36.5 36 36.0523 36 35.5V29.7857C36 29.2334 35.5523 28.7857 35 28.7857H33.9143C33.362 28.7857 32.9143 29.2334 32.9143 29.7857V32.4143ZM29.2857 12.5C28.7334 12.5 28.2857 12.9477 28.2857 13.5V14.5857C28.2857 15.138 28.7334 15.5857 29.2857 15.5857H31.9143C32.4666 15.5857 32.9143 16.0334 32.9143 16.5857V19.2143C32.9143 19.7666 33.362 20.2143 33.9143 20.2143H35C35.5523 20.2143 36 19.7666 36 19.2143V13.5C36 12.9477 35.5523 12.5 35 12.5H29.2857Z" fill="white"/>
<rect x="17" y="22.5" width="14.4" height="3.6" rx="1" fill="white"/>
<defs>
<linearGradient id="paint0_linear_1491_1281" x1="0.72" y1="0.5" x2="56.6339" y2="34.1562" gradientUnits="userSpaceOnUse">
<stop stop-color="#016CFE"/>
<stop offset="1" stop-color="#016CFE"/>
</linearGradient>
</defs>
</svg>
