<svg width="48" height="48" viewBox="0 0 48 48" fill="none" xmlns="http://www.w3.org/2000/svg">
<g clip-path="url(#clip0_2207_10303)">
<path d="M39.6913 -4.49414H8.23603C1.20589 -4.49414 -4.49316 1.20492 -4.49316 8.23506V39.6903C-4.49316 46.7204 1.20589 52.4195 8.23603 52.4195H39.6913C46.7214 52.4195 52.4205 46.7204 52.4205 39.6903V8.23506C52.4205 1.20492 46.7214 -4.49414 39.6913 -4.49414Z" fill="white"/>
<path d="M15.6701 12.6212C15.8028 12.4441 15.8836 12.2335 15.9034 12.0131C15.9231 11.7927 15.8811 11.5711 15.7821 11.3732C15.683 11.1752 15.5308 11.0088 15.3425 10.8926C15.1541 10.7763 14.9372 10.7147 14.7158 10.7148H6.6709V13.0363H12.4478L6.92765 20.3966C6.79504 20.5736 6.71429 20.7839 6.69443 21.0042C6.67457 21.2244 6.71639 21.4459 6.8152 21.6437C6.914 21.8415 7.06591 22.008 7.25392 22.1244C7.44193 22.2408 7.65863 22.3027 7.87978 22.303H15.9268V19.9815H10.1499L15.6701 12.6212Z" fill="#0033C9"/>
<path d="M36.6963 13.0332C35.7791 13.0328 34.8824 13.3044 34.1196 13.8137C33.3568 14.323 32.7622 15.0471 32.411 15.8944C32.0598 16.7417 31.9678 17.6742 32.1466 18.5738C32.3254 19.4734 32.7671 20.2997 33.4156 20.9483C34.0642 21.5968 34.8905 22.0385 35.7901 22.2173C36.6897 22.3961 37.6222 22.3041 38.4695 21.9529C39.3168 21.6017 40.0409 21.0071 40.5502 20.2443C41.0595 19.4815 41.3311 18.5848 41.3307 17.6676C41.329 16.439 40.8402 15.2612 39.9714 14.3925C39.1027 13.5237 37.9249 13.0349 36.6963 13.0332ZM36.6963 19.9827C36.2383 19.9831 35.7905 19.8477 35.4095 19.5935C35.0285 19.3394 34.7315 18.978 34.5559 18.555C34.3804 18.132 34.3342 17.6665 34.4233 17.2173C34.5124 16.768 34.7327 16.3553 35.0564 16.0314C35.3801 15.7074 35.7926 15.4867 36.2417 15.3972C36.6909 15.3077 37.1564 15.3534 37.5796 15.5286C38.0027 15.7037 38.3644 16.0004 38.6189 16.3812C38.8734 16.762 39.0092 17.2096 39.0092 17.6676C39.0086 18.281 38.7648 18.8692 38.3313 19.3032C37.8977 19.7372 37.3097 19.9815 36.6963 19.9827Z" fill="#0033C9"/>
<path d="M11.3035 25.7852C10.0742 25.7863 8.89553 26.2751 8.02625 27.1444C7.15698 28.0137 6.66813 29.1924 6.66699 30.4217V38.5287H8.98847V34.4313C9.60414 34.7874 10.2935 34.997 11.0032 35.0439C11.7129 35.0907 12.4238 34.9737 13.081 34.7017C13.7381 34.4297 14.3239 34.0101 14.7928 33.4754C15.2618 32.9407 15.6014 32.3052 15.7854 31.6182C15.9693 30.9312 15.9927 30.2111 15.8536 29.5136C15.7146 28.8161 15.4169 28.1599 14.9836 27.5959C14.5502 27.032 13.9929 26.5753 13.3548 26.2613C12.7166 25.9473 12.0147 25.7844 11.3035 25.7852ZM11.3035 32.7346C10.8456 32.7346 10.3979 32.5988 10.0171 32.3443C9.63637 32.0898 9.33965 31.7281 9.16449 31.305C8.98933 30.8818 8.94361 30.4163 9.03311 29.9671C9.12261 29.518 9.34331 29.1055 9.66729 28.7818C9.99127 28.4581 10.404 28.2378 10.8532 28.1487C11.3024 28.0596 11.768 28.1058 12.1909 28.2813C12.6139 28.4569 12.9753 28.7539 13.2295 29.1349C13.4836 29.5159 13.619 29.9637 13.6186 30.4217C13.6174 31.0351 13.3731 31.6231 12.9391 32.0567C12.5052 32.4902 11.917 32.734 11.3035 32.7346Z" fill="#00CF6A"/>
<path d="M34.27 25.7871L31.8009 31.5469L29.4559 25.7871H26.9482L30.515 34.5488L28.8097 38.5285H31.3366L36.7947 25.7871H34.27Z" fill="#00CF6A"/>
<path d="M26.0692 19.9805V13.0332H23.7434V13.8783C23.0125 13.3378 22.1278 13.0454 21.2187 13.0439C18.7817 13.0439 16.8047 15.1172 16.8047 17.674C16.8047 20.2308 18.7817 22.302 21.2187 22.302C22.324 22.2987 23.3852 21.8678 24.1799 21.0995C24.4217 21.4688 24.7514 21.7721 25.1394 21.9824C25.5274 22.1927 25.9616 22.3032 26.403 22.3041H27.2246V19.9805H26.0692ZM21.4348 19.9805C20.9777 19.9809 20.5307 19.8458 20.1504 19.5921C19.7701 19.3385 19.4736 18.9777 19.2984 18.5555C19.1232 18.1333 19.0771 17.6686 19.166 17.2202C19.2549 16.7718 19.4749 16.3599 19.7979 16.0365C20.121 15.7131 20.5328 15.4929 20.9811 15.4035C21.4294 15.3142 21.8941 15.3598 22.3165 15.5347C22.7388 15.7095 23.0998 16.0057 23.3539 16.3857C23.6079 16.7658 23.7434 17.2126 23.7434 17.6697C23.744 17.9733 23.6847 18.2739 23.5689 18.5545C23.4532 18.8351 23.2832 19.0901 23.0688 19.305C22.8543 19.5198 22.5996 19.6902 22.3193 19.8065C22.0389 19.9228 21.7383 19.9827 21.4348 19.9827V19.9805Z" fill="#0033C9"/>
<path d="M26.0692 32.7366V25.7871H23.7434V26.643C23.0132 26.1008 22.1282 25.8076 21.2187 25.8064C18.7817 25.8064 16.8047 27.8796 16.8047 30.4365C16.8047 32.9933 18.7817 35.0645 21.2187 35.0645C22.324 35.0611 23.3852 34.6302 24.1799 33.862C24.421 34.2319 24.7505 34.5358 25.1387 34.7461C25.5269 34.9565 25.9615 35.0666 26.403 35.0666H27.2246V32.7366H26.0692ZM21.4348 32.7366C20.9782 32.7366 20.5318 32.6012 20.1522 32.3475C19.7725 32.0938 19.4766 31.7332 19.3019 31.3114C19.1272 30.8895 19.0814 30.4254 19.1705 29.9775C19.2596 29.5297 19.4795 29.1183 19.8023 28.7955C20.1252 28.4726 20.5366 28.2527 20.9844 28.1636C21.4322 28.0746 21.8964 28.1203 22.3183 28.295C22.7401 28.4698 23.1007 28.7657 23.3544 29.1453C23.608 29.525 23.7434 29.9713 23.7434 30.4279C23.7434 31.0402 23.5002 31.6274 23.0673 32.0604C22.6343 32.4933 22.0471 32.7366 21.4348 32.7366Z" fill="#00CF6A"/>
<path d="M30.4293 19.9794V10.7148H28.1035V19.6413C28.1035 20.3468 28.3836 21.0235 28.8823 21.5226C29.381 22.0217 30.0575 22.3024 30.763 22.303H31.5932V19.9794H30.4293Z" fill="#0033C9"/>
</g>
<defs>
<clipPath id="clip0_2207_10303">
<rect width="48" height="48" rx="8" fill="white"/>
</clipPath>
</defs>
</svg>
