<svg width="48" height="49" viewBox="0 0 48 49" fill="none" xmlns="http://www.w3.org/2000/svg">
<rect y="0.5" width="48" height="48" rx="8" fill="#3478F5"/>
<path d="M20 17.9C20.5523 17.9 21 18.3477 21 18.9V20.5C21 21.0523 20.5523 21.5 20 21.5H18.4C17.8477 21.5 17.4 21.0523 17.4 20.5V18.9C17.4 18.3477 17.8477 17.9 18.4 17.9H20ZM22.8 17.1C22.8 16.5477 22.3523 16.1 21.8 16.1H16.6C16.0477 16.1 15.6 16.5477 15.6 17.1V22.3C15.6 22.8523 16.0477 23.3 16.6 23.3H21.8C22.3523 23.3 22.8 22.8523 22.8 22.3V17.1ZM20 27.5C20.5523 27.5 21 27.9477 21 28.5V30.1C21 30.6523 20.5523 31.1 20 31.1H18.4C17.8477 31.1 17.4 30.6523 17.4 30.1V28.5C17.4 27.9477 17.8477 27.5 18.4 27.5H20ZM22.8 26.7C22.8 26.1477 22.3523 25.7 21.8 25.7H16.6C16.0477 25.7 15.6 26.1477 15.6 26.7V31.9C15.6 32.4523 16.0477 32.9 16.6 32.9H21.8C22.3523 32.9 22.8 32.4523 22.8 31.9V26.7ZM29.6 17.9C30.1523 17.9 30.6 18.3477 30.6 18.9V20.5C30.6 21.0523 30.1523 21.5 29.6 21.5H28C27.4477 21.5 27 21.0523 27 20.5V18.9C27 18.3477 27.4477 17.9 28 17.9H29.6ZM32.4 17.1C32.4 16.5477 31.9523 16.1 31.4 16.1H26.2C25.6477 16.1 25.2 16.5477 25.2 17.1V22.3C25.2 22.8523 25.6477 23.3 26.2 23.3H31.4C31.9523 23.3 32.4 22.8523 32.4 22.3V17.1ZM25.2 26.6C25.2 26.1029 25.6029 25.7 26.1 25.7C26.5971 25.7 27 26.1029 27 26.6V27.5H26.1C25.6029 27.5 25.2 27.0971 25.2 26.6ZM27 27.5H28.8V29.3H27V27.5ZM28.8 26.6C28.8 26.1029 29.2029 25.7 29.7 25.7C30.1971 25.7 30.6 26.1029 30.6 26.6V27.5H28.8V26.6ZM25.2 30.2C25.2 29.7029 25.6029 29.3 26.1 29.3H27V31.1H26.1C25.6029 31.1 25.2 30.6971 25.2 30.2ZM27 31.1H28.8V32C28.8 32.4971 28.3971 32.9 27.9 32.9C27.4029 32.9 27 32.4971 27 32V31.1ZM28.8 29.3H30.6V31.1H28.8V29.3ZM30.6 27.5H31.5C31.9971 27.5 32.4 27.9029 32.4 28.4C32.4 28.8971 31.9971 29.3 31.5 29.3H30.6V27.5ZM30.6 31.1H31.5C31.9971 31.1 32.4 31.5029 32.4 32C32.4 32.4971 31.9971 32.9 31.5 32.9C31.0029 32.9 30.6 32.4971 30.6 32V31.1ZM36 17.5C36 18.0523 35.5523 18.5 35 18.5H34.6C34.0477 18.5 33.6 18.0523 33.6 17.5V15.9C33.6 15.3477 33.1523 14.9 32.6 14.9H31C30.4477 14.9 30 14.4523 30 13.9V13.5C30 12.9477 30.4477 12.5 31 12.5H35C35.5523 12.5 36 12.9477 36 13.5V17.5ZM35 36.5C35.5523 36.5 36 36.0523 36 35.5V31.5C36 30.9477 35.5523 30.5 35 30.5H34.6C34.0477 30.5 33.6 30.9477 33.6 31.5V33.1C33.6 33.6523 33.1523 34.1 32.6 34.1H31C30.4477 34.1 30 34.5477 30 35.1V35.5C30 36.0523 30.4477 36.5 31 36.5H35ZM12 35.5C12 36.0523 12.4477 36.5 13 36.5H17C17.5523 36.5 18 36.0523 18 35.5V35.1C18 34.5477 17.5523 34.1 17 34.1H15.4C14.8477 34.1 14.4 33.6523 14.4 33.1V31.5C14.4 30.9477 13.9523 30.5 13.4 30.5H13C12.4477 30.5 12 30.9477 12 31.5V35.5ZM13 12.5C12.4477 12.5 12 12.9477 12 13.5V17.5C12 18.0523 12.4477 18.5 13 18.5H13.4C13.9523 18.5 14.4 18.0523 14.4 17.5V15.9C14.4 15.3477 14.8477 14.9 15.4 14.9H17C17.5523 14.9 18 14.4523 18 13.9V13.5C18 12.9477 17.5523 12.5 17 12.5H13Z" fill="white"/>
</svg>
